<svg width="748" height="291" viewBox="0 0 748 291" fill="none" xmlns="http://www.w3.org/2000/svg">
<mask id="path-1-inside-1_429_71" fill="white">
<path fill-rule="evenodd" clip-rule="evenodd" d="M12.1229 5.10214e-05C5.86258 -0.0185319 0.77323 5.04137 0.755491 11.3017L4.65021e-05 277.919C-0.0176916 284.18 5.04292 289.27 11.3032 289.288L534.607 290.842C540.058 290.858 544.621 287.024 545.722 281.9C547.039 286.685 551.415 290.206 556.619 290.221L735.22 290.751C741.48 290.77 746.569 285.71 746.587 279.45L747.342 13.0919C747.359 6.83158 742.299 1.74155 736.039 1.72297L557.438 1.19281C552.039 1.17678 547.511 4.93852 546.356 9.98991C545.078 5.14663 540.674 1.56899 535.427 1.55342L12.1229 5.10214e-05Z"/>
</mask>
<path fill-rule="evenodd" clip-rule="evenodd" d="M12.1229 5.10214e-05C5.86258 -0.0185319 0.77323 5.04137 0.755491 11.3017L4.65021e-05 277.919C-0.0176916 284.18 5.04292 289.27 11.3032 289.288L534.607 290.842C540.058 290.858 544.621 287.024 545.722 281.9C547.039 286.685 551.415 290.206 556.619 290.221L735.22 290.751C741.48 290.77 746.569 285.71 746.587 279.45L747.342 13.0919C747.359 6.83158 742.299 1.74155 736.039 1.72297L557.438 1.19281C552.039 1.17678 547.511 4.93852 546.356 9.98991C545.078 5.14663 540.674 1.56899 535.427 1.55342L12.1229 5.10214e-05Z" fill="white"/>
<path d="M0.755491 11.3017L-0.244504 11.2988L0.755491 11.3017ZM12.1229 5.10214e-05L12.1258 -0.999945L12.1229 5.10214e-05ZM4.65021e-05 277.919L-0.999949 277.917L4.65021e-05 277.919ZM11.3032 289.288L11.3002 290.288L11.3002 290.288L11.3032 289.288ZM534.607 290.842L534.604 291.842L534.604 291.842L534.607 290.842ZM545.722 281.9L546.686 281.635L544.744 281.69L545.722 281.9ZM556.619 290.221L556.622 289.221L556.622 289.221L556.619 290.221ZM735.22 290.751L735.223 289.751L735.223 289.751L735.22 290.751ZM746.587 279.45L747.587 279.452L747.587 279.452L746.587 279.45ZM747.342 13.0919L748.342 13.0947L748.342 13.0947L747.342 13.0919ZM736.039 1.72297L736.041 0.72297L736.039 1.72297ZM557.438 1.19281L557.441 0.192817L557.441 0.192817L557.438 1.19281ZM546.356 9.98991L545.389 10.2451L547.331 10.2128L546.356 9.98991ZM535.427 1.55342L535.424 2.55341L535.427 1.55342ZM1.75549 11.3045C1.77166 5.59654 6.41194 0.983103 12.1199 1.00005L12.1258 -0.999945C5.31321 -1.02017 -0.225201 4.4862 -0.244504 11.2988L1.75549 11.3045ZM1.00004 277.922L1.75549 11.3045L-0.244504 11.2988L-0.999949 277.917L1.00004 277.922ZM11.3062 288.288C5.59812 288.271 0.983869 283.63 1.00004 277.922L-0.999949 277.917C-1.01925 284.729 4.48772 290.268 11.3002 290.288L11.3062 288.288ZM534.61 289.842L11.3062 288.288L11.3002 290.288L534.604 291.842L534.61 289.842ZM544.744 281.69C543.741 286.362 539.579 289.856 534.61 289.842L534.604 291.842C540.537 291.859 545.502 287.687 546.7 282.11L544.744 281.69ZM556.622 289.221C551.878 289.207 547.887 285.998 546.686 281.635L544.758 282.166C546.191 287.372 550.951 291.204 556.616 291.221L556.622 289.221ZM735.223 289.751L556.622 289.221L556.616 291.221L735.217 291.751L735.223 289.751ZM745.587 279.447C745.571 285.155 740.93 289.768 735.223 289.751L735.217 291.751C742.029 291.771 747.568 286.265 747.587 279.452L745.587 279.447ZM746.342 13.089L745.587 279.447L747.587 279.452L748.342 13.0947L746.342 13.089ZM736.036 2.72296C741.744 2.7399 746.358 7.38098 746.342 13.089L748.342 13.0947C748.361 6.28219 742.854 0.743192 736.041 0.72297L736.036 2.72296ZM557.435 2.19281L736.036 2.72296L736.041 0.72297L557.441 0.192817L557.435 2.19281ZM547.331 10.2128C548.384 5.60724 552.514 2.1782 557.435 2.19281L557.441 0.192817C551.564 0.175372 546.638 4.26979 545.381 9.76706L547.331 10.2128ZM535.424 2.55341C540.207 2.56761 544.223 5.82867 545.389 10.2451L547.323 9.73473C545.932 4.46459 541.141 0.570373 535.43 0.553421L535.424 2.55341ZM12.1199 1.00005L535.424 2.55341L535.43 0.553421L12.1258 -0.999945L12.1199 1.00005Z" fill="#3D3D3D" mask="url(#path-1-inside-1_429_71)"/>
<path d="M84.2085 83.4498C129.145 30.8216 179.344 21.1056 201.205 22.725C205.658 31.6313 218.478 59.2948 227.114 72.1145H238.45V107.74H244.927L253.024 123.933V134.054H282.172V144.984H333.585V134.054C397.387 125.309 465.426 152.541 491.47 167.25V262.386C466.208 272.102 207.547 266.434 84.2085 262.386L84.2085 83.4498Z" fill="url(#paint0_linear_429_71)"/>
<path d="M100.807 152.938H487.826" stroke="#3D3D3D" stroke-width="2.42899"/>
<path d="M158.501 54H432.573" stroke="#3D3D3D" stroke-width="2.42899"/>
<path d="M164.745 239.43H438.817" stroke="#3D3D3D" stroke-width="2.42899"/>
<mask id="path-7-inside-2_429_71" fill="white">
<path d="M544 12.3353C544 6.07498 549.075 1 555.335 1L735.665 1C741.925 1 747 6.07499 747 12.3353V278.665C747 284.925 741.925 290 735.665 290H555.335C549.075 290 544 284.925 544 278.665V12.3353Z"/>
</mask>
<path d="M544 12.3353C544 6.07498 549.075 1 555.335 1L735.665 1C741.925 1 747 6.07499 747 12.3353V278.665C747 284.925 741.925 290 735.665 290H555.335C549.075 290 544 284.925 544 278.665V12.3353Z" fill="#EDEDED"/>
<path d="M555.335 2L735.665 2V0L555.335 0V2ZM746 12.3353V278.665H748V12.3353H746ZM735.665 289H555.335V291H735.665V289ZM545 278.665V12.3353H543V278.665H545ZM555.335 289C549.627 289 545 284.373 545 278.665H543C543 285.477 548.523 291 555.335 291V289ZM746 278.665C746 284.373 741.373 289 735.665 289V291C742.477 291 748 285.477 748 278.665H746ZM735.665 2C741.373 2 746 6.62728 746 12.3353H748C748 5.5227 742.477 0 735.665 0V2ZM555.335 0C548.523 0 543 5.52269 543 12.3353H545C545 6.62727 549.627 2 555.335 2V0Z" fill="#3D3D3D" mask="url(#path-7-inside-2_429_71)"/>
<path d="M577.076 227.353C577.076 229.066 577.377 230.614 577.978 231.996C578.549 233.378 579.405 234.55 580.547 235.512C581.659 236.474 583.026 237.21 584.649 237.721C586.241 238.231 588.044 238.487 590.058 238.487C592.702 238.487 595.001 238.081 596.954 237.27C598.907 236.429 600.41 235.196 601.462 233.574C602.513 231.921 603.039 229.863 603.039 227.399C603.039 225.986 602.919 224.649 602.679 223.387C602.438 222.125 602.138 220.893 601.777 219.691L605.293 219.691C605.744 220.893 606.074 222.14 606.285 223.432C606.495 224.694 606.6 226.212 606.6 227.985C606.6 231.26 605.924 233.994 604.572 236.188C603.22 238.382 601.296 240.034 598.802 241.146C596.308 242.228 593.378 242.769 590.013 242.769C587.579 242.769 585.355 242.438 583.342 241.777C581.328 241.086 579.585 240.095 578.113 238.802C576.641 237.48 575.514 235.858 574.732 233.934C573.921 232.011 573.515 229.803 573.515 227.308C573.515 225.656 573.681 224.063 574.011 222.53C574.342 220.998 574.808 219.631 575.409 218.429L578.834 220.051C578.383 221.043 577.978 222.155 577.617 223.387C577.257 224.589 577.076 225.911 577.076 227.353ZM606.735 202.615C606.735 209.872 602.048 213.703 594.25 213.703C586.452 213.703 581.809 209.737 581.809 202.615C581.809 195.358 586.452 191.527 594.25 191.527C602.138 191.527 606.735 195.493 606.735 202.615ZM584.964 202.615C584.964 207.348 588.48 209.511 594.25 209.511C600.019 209.511 603.58 207.393 603.58 202.615C603.58 197.702 600.064 195.718 594.25 195.718C588.48 195.718 584.964 197.882 584.964 202.615ZM606.149 168.194L591.5 168.194C589.787 168.194 587.894 168.149 586.767 169.005C585.64 169.816 585.19 171.169 585.19 172.746C585.19 177.164 588.029 179.147 591.906 179.147L606.149 179.147L606.149 183.249L582.395 183.249L582.395 179.417L586.407 179.417L586.407 179.327C583.973 178.2 581.809 175.451 581.809 171.664C581.809 167.112 583.973 164.092 589.607 164.092L606.149 164.092L606.149 168.194ZM599.523 148.196L585.776 148.196L585.776 156.806L582.395 156.806L582.395 150.405C582.395 148.557 581.764 147.926 579.916 147.926L575.093 147.926L575.093 144.185L582.395 144.185L582.395 134.899L585.776 134.899L585.776 144.185L599.208 144.185C602.318 144.185 603.22 142.427 603.22 139.948C603.22 137.694 602.814 136.612 602.273 134.899L605.654 134.899C606.149 136.207 606.69 137.874 606.69 140.218C606.69 146.033 603.986 148.196 599.523 148.196ZM585.731 110.62C585.731 116.345 589.652 119.365 595.963 119.365L606.149 119.365L606.149 123.421L582.395 123.421L582.395 119.59L588.3 119.59L588.3 119.5C583.612 117.787 581.944 114.451 581.944 109.719C581.944 108.096 582.35 106.113 582.891 104.986L586.722 104.986C586.226 106.608 585.731 108.186 585.731 110.62ZM606.735 87.2872C606.735 94.5442 602.048 98.3756 594.25 98.3756C586.452 98.3756 581.809 94.409 581.809 87.2872C581.809 80.0302 586.452 76.1989 594.25 76.1989C602.138 76.1989 606.735 80.1654 606.735 87.2872ZM584.964 87.2872C584.964 92.0201 588.48 94.1836 594.25 94.1836C600.019 94.1836 603.58 92.0651 603.58 87.2872C603.58 82.3741 600.064 80.3908 594.25 80.3908C588.48 80.3908 584.964 82.5544 584.964 87.2872ZM606.149 47.2317L606.149 68.7323L602.769 68.7323L602.769 60.078L573.876 60.078L573.876 67.8759L570.631 67.8759L570.631 56.0663L602.769 56.0663L602.769 47.2317L606.149 47.2317Z" fill="#3D3D3D"/>
<path d="M734.676 241.784H646.002V252.229H734.676V241.784Z" fill="#58595B"/>
<path d="M734.675 233.228H646.001V238.441H734.675V233.228Z" fill="#58595B"/>
<path d="M734.675 224.71H646.001V229.923H734.675V224.71Z" fill="#58595B"/>
<path d="M734.675 216.193H646.001V221.405H734.675V216.193Z" fill="#58595B"/>
<path d="M734.675 181.082H646.001V186.294H734.675V181.082Z" fill="#58595B"/>
<path d="M734.676 172.565H646.002V177.778H734.676V172.565Z" fill="#58595B"/>
<path d="M734.674 164.047H646V169.259H734.674V164.047Z" fill="#58595B"/>
<path d="M734.675 203.781H646.001V214.226H734.675V203.781Z" fill="#58595B"/>
<path d="M734.676 190.012H646.002V200.457H734.676V190.012Z" fill="#58595B"/>
<path d="M734.675 149.825H646.001V160.27H734.675V149.825Z" fill="#58595B"/>
<path d="M734.674 137.729H646V148.173H734.674V137.729Z" fill="#58595B"/>
<path d="M734.675 132.516H646.001V142.961H734.675V132.516Z" fill="#58595B"/>
<path d="M734.675 123.96H646.001V129.173H734.675V123.96Z" fill="#58595B"/>
<path d="M734.676 115.442H646.002V120.655H734.676V115.442Z" fill="#58595B"/>
<path d="M734.675 106.924H646.001V112.137H734.675V106.924Z" fill="#58595B"/>
<path d="M734.675 71.813H646.001V77.0256H734.675V71.813Z" fill="#58595B"/>
<path d="M734.674 63.2764H646V68.489H734.674V63.2764Z" fill="#58595B"/>
<path d="M734.675 54.7583L646.001 54.7583V59.9709L734.675 59.9709V54.7583Z" fill="#58595B"/>
<path d="M734.674 94.5127H646V104.958H734.674V94.5127Z" fill="#58595B"/>
<path d="M734.676 80.7432H646.002V91.1881H734.676V80.7432Z" fill="#58595B"/>
<path d="M734.675 40.5566H646.001V51.0016H734.675V40.5566Z" fill="#58595B"/>
<path d="M734.674 32H646V42.2679H734.674V32Z" fill="#58595B"/>
<path d="M455.567 276.218V264.251H458.265L462.405 272.765H462.556C462.534 272.486 462.506 272.156 462.472 271.776C462.439 271.385 462.411 270.989 462.389 270.586C462.366 270.173 462.355 269.799 462.355 269.463V264.251H464.534V276.218H461.852L457.679 267.653H457.561C457.595 267.955 457.623 268.318 457.645 268.743C457.679 269.156 457.707 269.57 457.729 269.983C457.751 270.396 457.762 270.76 457.762 271.072V276.218H455.567ZM465.674 276.218V274.676H470.904V276.218H465.674ZM468.272 273.972C467.736 273.972 467.261 273.855 466.847 273.62C466.434 273.386 466.104 273.05 465.858 272.615C465.624 272.168 465.506 271.626 465.506 270.989C465.506 270.039 465.758 269.307 466.261 268.793C466.763 268.279 467.445 268.022 468.306 268.022C468.831 268.022 469.3 268.139 469.713 268.374C470.138 268.597 470.468 268.933 470.702 269.38C470.948 269.815 471.071 270.352 471.071 270.989C471.071 271.938 470.82 272.676 470.317 273.201C469.814 273.715 469.132 273.972 468.272 273.972ZM468.289 272.631C468.68 272.631 468.959 272.497 469.127 272.229C469.306 271.95 469.395 271.536 469.395 270.989C469.395 270.441 469.306 270.033 469.127 269.765C468.959 269.497 468.68 269.363 468.289 269.363C467.898 269.363 467.613 269.497 467.434 269.765C467.255 270.033 467.166 270.441 467.166 270.989C467.166 271.536 467.255 271.95 467.434 272.229C467.613 272.497 467.898 272.631 468.289 272.631ZM481.938 276.218H472.686V273.754H475.787V268.005H473.054V265.96H473.591C474.429 265.96 475.016 265.826 475.518 265.374C475.887 265.055 476.105 264.535 476.105 263.748H479.105V273.754H481.938V276.218ZM483.156 270.1C483.156 265.843 484.614 263.647 487.782 263.647C491.151 263.647 492.408 265.843 492.408 270.1C492.408 274.24 491.134 276.486 487.782 276.486C484.597 276.486 483.156 274.291 483.156 270.1ZM487.782 274.006C488.888 274.006 488.938 272.983 488.938 270.084C488.938 267.251 488.804 266.128 487.782 266.128C486.726 266.128 486.625 267.284 486.625 270.084C486.625 273.151 486.743 274.006 487.782 274.006ZM503.381 276.218H494.129V273.754H497.23V268.005H494.497V265.96H495.034C495.872 265.96 496.459 265.826 496.961 265.374C497.33 265.055 497.548 264.535 497.548 263.748H500.548V273.754H503.381V276.218ZM504.599 270.1C504.599 265.843 506.057 263.647 509.225 263.647C512.594 263.647 513.851 265.843 513.851 270.1C513.851 274.24 512.577 276.486 509.225 276.486C506.04 276.486 504.599 274.291 504.599 270.1ZM509.225 274.006C510.331 274.006 510.381 272.983 510.381 270.084C510.381 267.251 510.247 266.128 509.225 266.128C508.169 266.128 508.068 267.284 508.068 270.084C508.068 273.151 508.186 274.006 509.225 274.006ZM524.824 276.218H515.572V273.754H518.673V268.005H515.94V265.96H516.477C517.315 265.96 517.902 265.826 518.404 265.374C518.773 265.055 518.991 264.535 518.991 263.748H521.991V273.754H524.824V276.218ZM526.042 270.1C526.042 265.843 527.5 263.647 530.668 263.647C534.037 263.647 535.294 265.843 535.294 270.1C535.294 274.24 534.02 276.486 530.668 276.486C527.483 276.486 526.042 274.291 526.042 270.1ZM530.668 274.006C531.774 274.006 531.825 272.983 531.825 270.084C531.825 267.251 531.69 266.128 530.668 266.128C529.612 266.128 529.511 267.284 529.511 270.084C529.511 273.151 529.629 274.006 530.668 274.006Z" fill="#3D3D3D"/>
<path d="M14.6213 265.338H11.4533C11.4366 262.723 13.0457 260.711 16.2471 260.711C19.2642 260.711 20.7392 262.505 20.7392 264.6C20.7392 266.377 19.9515 267.382 18.3759 268.79L17.9568 269.159C16.8506 270.148 16.1633 270.668 16.1633 270.668V270.768H20.8398V273.35H11.4869V271.321L15.9119 267.232C16.9679 266.243 17.5043 265.673 17.5043 264.684C17.5043 263.762 17.0517 263.293 16.1801 263.293C15.4594 263.293 14.6213 263.628 14.6213 265.338ZM22.2251 269.595H25.3763C25.4434 270.718 26.1306 271.12 26.801 271.137C27.8235 271.137 28.3934 270.601 28.3934 269.226C28.3934 267.986 27.9241 267.433 26.9351 267.433C26.2814 267.433 25.8289 267.718 25.4769 268.204H22.5771L22.8118 260.929H30.8406V263.527H25.4098L25.326 265.991H25.4769C26.1306 265.338 26.8848 265.103 27.9911 265.103C30.3713 265.103 31.6116 266.695 31.6116 269.075C31.6116 271.456 30.1366 273.601 26.9184 273.601C23.4152 273.601 22.2922 271.59 22.2251 269.595ZM35.8799 273.35V269.981H39.2658V273.35H35.8799ZM53.172 273.35H43.9196V270.886H47.0205V265.136H44.2883V263.092H44.8247C45.6628 263.092 46.2494 262.957 46.7523 262.505C47.121 262.186 47.3389 261.667 47.3389 260.879H50.3393V270.886H53.172V273.35ZM54.3897 267.232C54.3897 262.974 55.8479 260.778 59.0159 260.778C62.3849 260.778 63.6421 262.974 63.6421 267.232C63.6421 271.372 62.3682 273.618 59.0159 273.618C55.8312 273.618 54.3897 271.422 54.3897 267.232ZM59.0159 271.137C60.1221 271.137 60.1724 270.115 60.1724 267.215C60.1724 264.382 60.0383 263.259 59.0159 263.259C57.9599 263.259 57.8593 264.416 57.8593 267.215C57.8593 270.282 57.9766 271.137 59.0159 271.137ZM68.0445 273.35V269.981H71.4303V273.35H68.0445ZM78.9503 265.338H75.7824C75.7656 262.723 77.3748 260.711 80.5762 260.711C83.5933 260.711 85.0683 262.505 85.0683 264.6C85.0683 266.377 84.2805 267.382 82.7049 268.79L82.2859 269.159C81.1796 270.148 80.4924 270.668 80.4924 270.668V270.768H85.1689V273.35H75.8159V271.321L80.241 267.232C81.297 266.243 81.8333 265.673 81.8333 264.684C81.8333 263.762 81.3808 263.293 80.5092 263.293C79.7884 263.293 78.9503 263.628 78.9503 265.338ZM86.5542 267.232C86.5542 262.974 88.0125 260.778 91.1804 260.778C94.5495 260.778 95.8066 262.974 95.8066 267.232C95.8066 271.372 94.5327 273.618 91.1804 273.618C87.9957 273.618 86.5542 271.422 86.5542 267.232ZM91.1804 271.137C92.2867 271.137 92.3369 270.115 92.3369 267.215C92.3369 264.382 92.2028 263.259 91.1804 263.259C90.1244 263.259 90.0238 264.416 90.0238 267.215C90.0238 270.282 90.1412 271.137 91.1804 271.137ZM100.393 265.338H97.2254C97.2087 262.723 98.8178 260.711 102.019 260.711C105.036 260.711 106.511 262.505 106.511 264.6C106.511 266.377 105.724 267.382 104.148 268.79L103.729 269.159C102.623 270.148 101.935 270.668 101.935 270.668V270.768H106.612V273.35H97.2589V271.321L101.684 267.232C102.74 266.243 103.276 265.673 103.276 264.684C103.276 263.762 102.824 263.293 101.952 263.293C101.231 263.293 100.393 263.628 100.393 265.338ZM110.629 268.288H113.059V263.058H112.841C112.841 263.058 112.607 263.846 112.171 264.835L110.629 268.288ZM117.568 270.819H115.842V273.35H112.959V270.819H107.712V268.556L111.417 260.929H115.842V268.237H117.568V270.819Z" fill="#3D3D3D"/>
<defs>
<linearGradient id="paint0_linear_429_71" x1="288.244" y1="48.8756" x2="288.244" y2="320.518" gradientUnits="userSpaceOnUse">
<stop stop-color="#A28BF5"/>
<stop offset="1" stop-color="white" stop-opacity="0"/>
</linearGradient>
</defs>
</svg>
