<svg width="877" height="6192" viewBox="0 0 877 6192" fill="none" xmlns="http://www.w3.org/2000/svg">
<path d="M133 12.5C319 121 84.5001 261 207.259 498.426C452.479 972.704 593.759 1086.93 542.759 1310.43C524.54 1390.27 483 1624 258.5 1509C72.8333 1385.67 -134.83 1322.37 167.001 2028C352.001 2460.5 473.929 2382.38 625 2593C830.5 2879.5 593.758 2932.05 440.259 2981.93C307.925 3024.93 11.3256 3233.82 140.258 3497.93C202.258 3624.93 567.114 3708.77 574.759 3821.43C584.259 3961.43 -135.142 4231.33 223.258 4334.93C581.658 4438.53 445.289 4719.12 815.259 5108.93C1057.76 5364.43 292.258 5609.43 418.258 5869.43C575.758 6194.43 762.759 6003.43 838.259 6186.43" stroke="url(#paint0_linear_489_23)" stroke-width="27.0408"/>
<defs>
<linearGradient id="paint0_linear_489_23" x1="731.258" y1="3381.93" x2="-236.242" y2="3453.43" gradientUnits="userSpaceOnUse">
<stop stop-color="#E57734"/>
<stop offset="1" stop-color="white" stop-opacity="0"/>
</linearGradient>
</defs>
</svg>
