<svg width="171" height="1410" viewBox="0 0 171 1410" fill="none" xmlns="http://www.w3.org/2000/svg">
<path d="M39.3887 131.192C52.3125 139.28 62.6761 135.44 72.1921 127.256C94 108.5 98.5 143.042 76.5 147.744C59 152 44.467 169.588 61.942 218.592C83.7859 279.847 101.119 292.387 95.9495 320.413C94.1028 330.424 77.6027 351.636 54.8466 337.216C36.0268 321.75 16.295 312.873 46.8895 401.355C65.6418 455.589 113.579 455.762 128.893 482.173C149.723 518.098 101.119 523.756 85.5597 530.011C72.146 535.403 42.0816 561.597 55.1507 594.715C61.4352 610.64 98.4182 621.153 99.1931 635.28C100.156 652.835 27.2352 686.679 63.5638 699.67C99.8925 712.661 86.0696 747.846 123.571 796.726C148.152 828.764 70.5579 859.486 83.3297 892.089C99.2944 932.842 118.249 908.892 125.902 931.839C141.898 979.803 118.146 1050.43 111.606 1063.5C100.659 1085.38 135.61 1063.83 117.5 1089" stroke="url(#paint0_linear_491_29)" stroke-width="3.5"/>
<defs>
<linearGradient id="paint0_linear_491_29" x1="115.056" y1="580.169" x2="16.8024" y2="586.038" gradientUnits="userSpaceOnUse">
<stop stop-color="#E57734"/>
<stop offset="1" stop-color="white" stop-opacity="0"/>
</linearGradient>
</defs>
</svg>
