<svg width="1333" height="792" viewBox="0 0 1333 792" fill="none" xmlns="http://www.w3.org/2000/svg">
<rect x="5.5" y="5.5" width="1322" height="781" fill="white" stroke="#3D3D3D" stroke-width="11"/>
<path d="M162.957 725V463.026H320.141V490.765H194.805V579.117H302.334V606.17H194.805V697.262H321.854V725H162.957ZM369.334 725L437.824 631.854L374.471 544.529H409.743L455.289 608.91H456.658L502.547 544.529H534.737L471.726 630.484L540.901 725H505.286L453.919 653.428H452.891L401.866 725H369.334ZM652.419 510.627V464.738H698.307V510.627H652.419ZM759.948 725H596.6V699.316H663.035V569.186H606.531V544.529H692.486V699.316H759.948V725ZM869.069 674.66V570.213H803.661V544.529H852.289C866.33 544.529 871.124 539.735 871.124 525.694V489.052H899.547V544.529H970.092V570.213H899.547V672.263C899.547 695.892 912.903 702.741 931.737 702.741C948.86 702.741 957.079 699.659 970.092 695.549V721.233C960.161 725 947.49 729.109 929.683 729.109C885.507 729.109 869.069 708.562 869.069 674.66Z" fill="#E57734"/>
<path d="M230.077 114.491C250.396 114.491 267.404 116.432 281.102 120.313C295.029 124.194 305.416 130.586 312.265 139.49C319.342 148.394 322.881 160.265 322.881 175.105C322.881 184.693 321.055 193.254 317.402 200.788C313.977 208.094 308.727 214.258 301.649 219.281C294.8 224.075 286.353 227.385 276.308 229.212V230.924C286.581 232.522 295.828 235.49 304.046 239.828C312.493 244.165 319.114 250.329 323.908 258.32C328.703 266.31 331.1 276.698 331.1 289.483C331.1 304.322 327.675 316.993 320.826 327.495C313.977 337.768 304.161 345.644 291.376 351.124C278.819 356.375 263.751 359 246.172 359H160.218V114.491H230.077ZM236.241 218.596C257.245 218.596 271.628 215.285 279.39 208.665C287.152 201.816 291.033 191.771 291.033 178.529C291.033 165.059 286.239 155.471 276.65 149.763C267.29 143.828 252.222 140.86 231.447 140.86H191.038V218.596H236.241ZM191.038 244.279V332.974H240.351C262.039 332.974 277.107 328.75 285.554 320.303C294.001 311.856 298.225 300.784 298.225 287.086C298.225 278.41 296.284 270.876 292.403 264.484C288.75 258.092 282.472 253.183 273.568 249.759C264.893 246.106 253.021 244.279 237.954 244.279H191.038ZM378.834 359V175.447H408.97V250.786H456.57C472.551 250.786 485.678 252.727 495.952 256.608C506.225 260.489 513.873 266.31 518.896 274.073C523.919 281.606 526.43 291.195 526.43 302.838C526.43 314.253 523.919 324.184 518.896 332.631C514.102 341.078 506.454 347.585 495.952 352.151C485.678 356.717 472.095 359 455.2 359H378.834ZM452.461 334.686C465.474 334.686 476.09 332.517 484.309 328.18C492.527 323.614 496.637 315.737 496.637 304.551C496.637 293.364 492.87 285.83 485.336 281.949C477.802 277.839 466.958 275.785 452.803 275.785H408.97V334.686H452.461ZM556.908 359V175.447H587.043V359H556.908ZM688.861 265.169L625.507 175.447H659.752L707.01 244.622L753.926 175.447H787.828L724.475 265.169L791.253 359H757.008L707.01 285.716L656.328 359H622.425L688.861 265.169ZM979.52 266.881C979.52 282.177 977.465 295.761 973.356 307.633C969.475 319.276 963.767 329.207 956.233 337.426C948.928 345.644 939.91 351.923 929.18 356.26C918.678 360.37 906.921 362.424 893.907 362.424C881.808 362.424 870.621 360.37 860.347 356.26C850.074 351.923 841.17 345.644 833.636 337.426C826.102 329.207 820.167 319.276 815.829 307.633C811.72 295.761 809.665 282.177 809.665 266.881C809.665 246.562 813.089 229.44 819.938 215.514C826.787 201.359 836.604 190.629 849.389 183.323C862.174 175.79 877.356 172.023 894.935 172.023C911.601 172.023 926.212 175.79 938.768 183.323C951.553 190.629 961.484 201.359 968.561 215.514C975.867 229.44 979.52 246.562 979.52 266.881ZM840.828 266.881C840.828 281.264 842.654 293.82 846.307 304.551C850.188 315.052 856.124 323.157 864.114 328.864C872.105 334.572 882.264 337.426 894.592 337.426C906.921 337.426 917.08 334.572 925.07 328.864C933.061 323.157 938.883 315.052 942.535 304.551C946.416 293.82 948.357 281.264 948.357 266.881C948.357 252.27 946.416 239.828 942.535 229.554C938.654 219.281 932.718 211.404 924.728 205.925C916.966 200.218 906.806 197.364 894.25 197.364C875.529 197.364 861.946 203.528 853.498 215.856C845.051 228.184 840.828 245.193 840.828 266.881ZM1163.58 175.447V333.659H1190.29V422.696H1161.18V359H1033.44V422.696H1004.68V333.659H1019.4C1029.91 319.048 1038.58 303.181 1045.43 286.058C1052.51 268.707 1057.76 250.672 1061.18 231.951C1064.84 213.002 1066.78 194.168 1067 175.447H1163.58ZM1093.72 199.076C1092.8 214.6 1090.41 230.696 1086.52 247.361C1082.64 263.799 1077.62 279.552 1071.46 294.62C1065.52 309.687 1058.56 322.7 1050.57 333.659H1134.47V199.076H1093.72Z" fill="#3D3D3D"/>
<line x1="161.898" y1="788" x2="161.898" y2="434.546" stroke="#3D3D3D" stroke-width="2.20385"/>
<line x1="322.898" y1="787.454" x2="322.898" y2="434" stroke="#3D3D3D" stroke-width="2.20385"/>
<line x1="540.898" y1="788.454" x2="540.898" y2="435" stroke="#3D3D3D" stroke-width="2.20385"/>
<line x1="368.898" y1="788.454" x2="368.898" y2="435" stroke="#3D3D3D" stroke-width="2.20385"/>
<path d="M4 544L1327 544" stroke="#3D3D3D" stroke-width="2"/>
<path d="M4 463L1327 463" stroke="#3D3D3D" stroke-width="2"/>
<line x1="9" y1="724" x2="1313" y2="724" stroke="#3D3D3D" stroke-width="2"/>
<path d="M144.914 725.086C145.514 725.686 146.486 725.686 147.086 725.086L156.863 715.31C157.463 714.71 157.463 713.737 156.863 713.137C156.263 712.537 155.29 712.537 154.69 713.137L146 721.827L137.31 713.137C136.71 712.537 135.737 712.537 135.137 713.137C134.537 713.737 134.537 714.71 135.137 715.31L144.914 725.086ZM147.086 462.914C146.486 462.314 145.514 462.314 144.914 462.914L135.137 472.69C134.537 473.29 134.537 474.263 135.137 474.863C135.737 475.463 136.71 475.463 137.31 474.863L146 466.173L154.69 474.863C155.29 475.463 156.263 475.463 156.863 474.863C157.463 474.263 157.463 473.29 156.863 472.69L147.086 462.914ZM147.536 724L147.536 464L144.464 464L144.464 724L147.536 724Z" fill="#3D3D3D"/>
<path d="M555.914 725.086C556.514 725.686 557.486 725.686 558.086 725.086L567.863 715.31C568.463 714.71 568.463 713.737 567.863 713.137C567.263 712.537 566.29 712.537 565.69 713.137L557 721.827L548.31 713.137C547.71 712.537 546.737 712.537 546.137 713.137C545.537 713.737 545.537 714.71 546.137 715.31L555.914 725.086ZM558.086 544.914C557.486 544.314 556.514 544.314 555.914 544.914L546.137 554.69C545.537 555.29 545.537 556.263 546.137 556.863C546.737 557.463 547.71 557.463 548.31 556.863L557 548.173L565.69 556.863C566.29 557.463 567.263 557.463 567.863 556.863C568.463 556.263 568.463 555.29 567.863 554.69L558.086 544.914ZM558.536 724L558.536 546L555.464 546L555.464 724L558.536 724Z" fill="#3D3D3D"/>
<path d="M105.587 590.882L102.909 590.865C102.876 588.238 104.493 586.335 107.474 586.335C110.488 586.335 111.785 588.053 111.785 589.956C111.785 591.792 111.162 592.853 109.613 594.267L108.232 595.531C107.272 596.406 106.749 596.743 106.749 596.743V596.827H111.869V599H102.909V597.232L107.305 593.088C108.501 591.977 109.107 591.269 109.107 590.141C109.107 589.029 108.467 588.491 107.423 588.491C106.463 588.491 105.571 589.063 105.587 590.882ZM113.632 595.379H116.259C116.377 596.608 117.118 597.164 118.078 597.164C119.224 597.164 120.049 596.507 120.049 594.907C120.049 593.442 119.341 592.735 118.196 592.735C117.388 592.735 116.832 593.055 116.445 593.627H114.019L114.289 586.52H121.969V588.726H116.495L116.377 591.674H116.495C117.085 591.051 117.859 590.731 119.005 590.731C121.278 590.731 122.744 592.213 122.744 594.789C122.744 597.248 121.211 599.253 118.163 599.253C114.845 599.253 113.733 597.316 113.632 595.379ZM133.365 589.686H130.856C130.738 588.895 130.216 588.406 129.407 588.406C127.959 588.406 127.336 589.888 127.234 592.011H127.369C127.874 591.337 128.733 590.949 129.929 590.949C131.63 590.949 133.601 592.044 133.601 594.941C133.601 597.164 132.136 599.253 129.02 599.253C126.224 599.253 124.472 597.451 124.472 593.375C124.472 588.406 126.376 586.335 129.306 586.335C131.95 586.335 133.23 587.749 133.365 589.686ZM129.171 597.164C130.317 597.164 130.94 596.339 130.94 594.958C130.94 593.594 130.317 592.768 129.188 592.768C128.043 592.768 127.403 593.577 127.403 594.958C127.403 596.339 128.043 597.164 129.171 597.164Z" fill="#3D3D3D"/>
<path d="M581.105 635H572.314V632.912H575.413V626.444H572.566V624.676H573.291C574.116 624.676 574.688 624.524 575.143 624.103C575.514 623.766 575.716 623.261 575.716 622.469H578.175V632.912H581.105V635ZM583.811 635L588.628 624.76H582.649V622.52H591.541V624.491L586.657 635H583.811ZM594.584 635L599.401 624.76H593.422V622.52H602.314V624.491L597.43 635H594.584Z" fill="#3D3D3D"/>
<path d="M162.289 737.102C161.901 737.494 161.904 738.127 162.297 738.516L168.693 744.847C169.085 745.236 169.718 745.233 170.107 744.84C170.496 744.448 170.492 743.814 170.1 743.426L164.414 737.798L170.042 732.112C170.431 731.72 170.427 731.087 170.035 730.698C169.642 730.31 169.009 730.313 168.621 730.705L162.289 737.102ZM321.711 737.703C322.099 737.311 322.096 736.678 321.703 736.289L315.307 729.958C314.915 729.569 314.282 729.573 313.893 729.965C313.504 730.358 313.508 730.991 313.9 731.379L319.586 737.007L313.958 742.693C313.569 743.085 313.573 743.718 313.965 744.107C314.358 744.496 314.991 744.492 315.379 744.1L321.711 737.703ZM163.005 738.805L321.005 738L320.995 736L162.995 736.805L163.005 738.805Z" fill="#3D3D3D"/>
<path d="M369.293 736.293C368.902 736.683 368.902 737.317 369.293 737.707L375.657 744.071C376.047 744.462 376.681 744.462 377.071 744.071C377.462 743.681 377.462 743.047 377.071 742.657L371.414 737L377.071 731.343C377.462 730.953 377.462 730.319 377.071 729.929C376.681 729.538 376.047 729.538 375.657 729.929L369.293 736.293ZM540.707 737.707C541.098 737.317 541.098 736.683 540.707 736.293L534.343 729.929C533.953 729.538 533.319 729.538 532.929 729.929C532.538 730.319 532.538 730.953 532.929 731.343L538.586 737L532.929 742.657C532.538 743.047 532.538 743.681 532.929 744.071C533.319 744.462 533.953 744.462 534.343 744.071L540.707 737.707ZM370 738L540 738L540 736L370 736L370 738Z" fill="#3D3D3D"/>
<path d="M236 760.125H227.3V758.059H230.367V751.659H227.55V749.909H228.267C229.083 749.909 229.65 749.759 230.1 749.342C230.467 749.009 230.667 748.509 230.667 747.725H233.1V758.059H236V760.125ZM237.511 756.542H240.111C240.227 757.759 240.961 758.309 241.911 758.309C243.044 758.309 243.861 757.659 243.861 756.075C243.861 754.625 243.161 753.925 242.027 753.925C241.227 753.925 240.677 754.242 240.294 754.809H237.894L238.161 747.775H245.761V749.959H240.344L240.227 752.875H240.344C240.927 752.259 241.694 751.942 242.827 751.942C245.077 751.942 246.527 753.409 246.527 755.959C246.527 758.392 245.011 760.375 241.994 760.375C238.711 760.375 237.611 758.459 237.511 756.542ZM248.172 756.542H250.772C250.888 757.759 251.622 758.309 252.572 758.309C253.705 758.309 254.522 757.659 254.522 756.075C254.522 754.625 253.822 753.925 252.688 753.925C251.888 753.925 251.338 754.242 250.955 754.809H248.555L248.822 747.775H256.422V749.959H251.005L250.888 752.875H251.005C251.588 752.259 252.355 751.942 253.488 751.942C255.738 751.942 257.188 753.409 257.188 755.959C257.188 758.392 255.672 760.375 252.655 760.375C249.372 760.375 248.272 758.459 248.172 756.542Z" fill="#3D3D3D"/>
<path d="M449 760H440.3V757.933H443.367V751.533H440.55V749.783H441.267C442.083 749.783 442.65 749.633 443.1 749.217C443.467 748.883 443.667 748.383 443.667 747.6H446.1V757.933H449V760ZM459.377 750.783H456.894C456.777 750 456.261 749.517 455.461 749.517C454.027 749.517 453.411 750.983 453.311 753.083H453.444C453.944 752.417 454.794 752.033 455.977 752.033C457.661 752.033 459.611 753.117 459.611 755.983C459.611 758.183 458.161 760.25 455.077 760.25C452.311 760.25 450.577 758.467 450.577 754.433C450.577 749.517 452.461 747.467 455.361 747.467C457.977 747.467 459.244 748.867 459.377 750.783ZM455.227 758.183C456.361 758.183 456.977 757.367 456.977 756C456.977 754.65 456.361 753.833 455.244 753.833C454.111 753.833 453.477 754.633 453.477 756C453.477 757.367 454.111 758.183 455.227 758.183ZM461.172 756.417H463.772C463.888 757.633 464.622 758.183 465.572 758.183C466.705 758.183 467.522 757.533 467.522 755.95C467.522 754.5 466.822 753.8 465.688 753.8C464.888 753.8 464.338 754.117 463.955 754.683H461.555L461.822 747.65H469.422V749.833H464.005L463.888 752.75H464.005C464.588 752.133 465.355 751.817 466.488 751.817C468.738 751.817 470.188 753.283 470.188 755.833C470.188 758.267 468.672 760.25 465.655 760.25C462.372 760.25 461.272 758.333 461.172 756.417Z" fill="#3D3D3D"/>
<path d="M1107 635.251H1252.83" stroke="#3D3D3D" stroke-width="20" stroke-linecap="round" stroke-linejoin="round"/>
<path d="M1179.92 559L1252.83 635.251L1179.92 711.501" stroke="#3D3D3D" stroke-width="20" stroke-linecap="round" stroke-linejoin="round"/>
</svg>
