<svg width="1440" height="822" viewBox="0 0 1440 822" fill="none" xmlns="http://www.w3.org/2000/svg">
<path d="M1331 420.73H1167.12V394.963H1233.08V174.737H1173.65V150H1263.66V394.963H1331V420.73Z" fill="#3D3D3D"/>
<path d="M1089.25 313.881V311.819C1088.22 281.585 1075.51 258.91 1041.84 258.91C1010.92 258.91 993.74 281.242 989.961 313.881H1089.25ZM1117.77 373.318C1110.9 404.582 1083.07 425.196 1043.21 425.196C985.495 425.196 958.009 384.999 958.009 331.059C958.009 277.463 987.899 235.204 1042.18 235.204C1098.53 235.204 1120.86 277.119 1120.86 322.813V338.617H989.274C991.335 376.066 1007.83 401.146 1044.24 401.146C1076.54 401.146 1084.79 383.968 1088.22 373.318H1117.77Z" fill="#3D3D3D"/>
<path d="M816.924 420.73L747.867 239.671H779.132L823.795 359.575C829.292 374.349 833.415 388.091 833.415 388.091H835.476C835.476 388.091 839.599 374.349 845.096 359.575L889.76 239.671H918.963L849.906 420.73H816.924Z" fill="#3D3D3D"/>
<path d="M578.268 368.631C578.268 387.87 591.324 397.834 611.594 397.834C634.613 397.834 663.816 382.373 663.816 337.71V333.587C624.65 335.305 599.913 338.397 588.232 346.986C581.36 352.139 578.268 359.011 578.268 368.631ZM664.16 387.183C653.509 409.858 633.582 422.914 606.097 422.914C569.679 422.914 547.347 402.644 547.347 370.348C547.347 350.422 555.936 334.961 574.489 325.685C593.385 315.721 623.275 311.942 663.816 310.568V301.292C663.816 270.714 650.073 258.346 624.306 258.346C594.759 258.346 586.514 275.181 585.139 289.267H555.249C557.311 259.033 579.986 234.296 624.306 234.296C666.221 234.296 693.363 253.88 693.363 300.605V380.999C693.363 391.993 696.455 394.742 707.449 394.742H713.633V419.822H704.013C676.872 419.822 667.595 409.858 666.221 387.183H664.16Z" fill="#3D3D3D"/>
<path d="M463.293 265.095C419.661 265.095 396.642 294.985 396.642 343.084V420.73H365.721V239.671H394.924V284.678H395.611C408.666 248.947 434.09 236.235 470.165 236.235C482.533 236.235 497.65 239.327 506.239 243.45V272.653C493.871 268.874 481.846 265.095 463.293 265.095Z" fill="#3D3D3D"/>
<path d="M190.621 370.226V265.438H125V239.671H173.786C187.873 239.671 192.682 234.861 192.682 220.775V184.013H221.198V239.671H291.973V265.438H221.198V367.821C221.198 391.527 234.598 398.398 253.494 398.398C270.672 398.398 278.918 395.306 291.973 391.184V416.951C282.01 420.73 269.298 424.853 251.432 424.853C207.112 424.853 190.621 404.239 190.621 370.226Z" fill="#3D3D3D"/>
<mask id="path-7-outside-1_336_7" maskUnits="userSpaceOnUse" x="363.915" y="151.739" width="169" height="155" fill="black">
<rect fill="white" x="363.915" y="151.739" width="169" height="155"/>
<path fill-rule="evenodd" clip-rule="evenodd" d="M460.353 305.292V271.161H364.915V233.686H435.869C456.355 233.686 463.351 226.69 463.351 206.204V152.739H504.824V233.686H531.534C527.652 247.576 520.946 260.287 512.072 271.161H504.824V279.158C492.608 291.306 477.378 300.424 460.353 305.292Z"/>
</mask>
<path fill-rule="evenodd" clip-rule="evenodd" d="M460.353 305.292V271.161H364.915V233.686H435.869C456.355 233.686 463.351 226.69 463.351 206.204V152.739H504.824V233.686H531.534C527.652 247.576 520.946 260.287 512.072 271.161H504.824V279.158C492.608 291.306 477.378 300.424 460.353 305.292Z" fill="#3D3D3D"/>
<path d="M460.353 305.292H459.419V306.53L460.61 306.19L460.353 305.292ZM460.353 271.161H461.287V270.227H460.353V271.161ZM364.915 271.161H363.982V272.095H364.915V271.161ZM364.915 233.686V232.752H363.982V233.686H364.915ZM463.351 152.739V151.805H462.417V152.739H463.351ZM504.824 152.739H505.757V151.805H504.824V152.739ZM504.824 233.686H503.89V234.619H504.824V233.686ZM531.534 233.686L532.433 233.937L532.765 232.752H531.534V233.686ZM512.072 271.161V272.095H512.515L512.796 271.751L512.072 271.161ZM504.824 271.161V270.227H503.89V271.161H504.824ZM504.824 279.158L505.482 279.82L505.757 279.546V279.158H504.824ZM461.287 305.292V271.161H459.419V305.292H461.287ZM460.353 270.227H364.915V272.095H460.353V270.227ZM365.849 271.161V233.686H363.982V271.161H365.849ZM364.915 234.619H435.869V232.752H364.915V234.619ZM435.869 234.619C446.169 234.619 453.368 232.872 457.953 228.287C462.537 223.703 464.285 216.504 464.285 206.204H462.417C462.417 216.39 460.667 222.932 456.632 226.967C452.597 231.001 446.055 232.752 435.869 232.752V234.619ZM464.285 206.204V152.739H462.417V206.204H464.285ZM463.351 153.672H504.824V151.805H463.351V153.672ZM503.89 152.739V233.686H505.757V152.739H503.89ZM504.824 234.619H531.534V232.752H504.824V234.619ZM530.635 233.434C526.788 247.198 520.142 259.795 511.349 270.571L512.796 271.751C521.749 260.78 528.516 247.954 532.433 233.937L530.635 233.434ZM512.072 270.227H504.824V272.095H512.072V270.227ZM503.89 271.161V279.158H505.757V271.161H503.89ZM504.165 278.496C492.059 290.535 476.966 299.571 460.096 304.394L460.61 306.19C477.79 301.278 493.158 292.077 505.482 279.82L504.165 278.496Z" fill="#3D3D3D" mask="url(#path-7-outside-1_336_7)"/>
<circle cx="435.5" cy="206.5" r="101.671" fill="white" stroke="#3D3D3D" stroke-width="3.65724"/>
<mask id="path-10-outside-2_336_7" maskUnits="userSpaceOnUse" x="342" y="183" width="188" height="111" fill="black">
<rect fill="white" x="342" y="183" width="188" height="111"/>
<path fill-rule="evenodd" clip-rule="evenodd" d="M343 251.19V188.541H381.597V248.026H382.505C399.761 200.801 433.363 184 481.042 184C497.389 184 517.369 188.087 528.721 193.536V232.133C528.429 232.044 528.137 231.955 527.845 231.865C511.803 226.961 496.043 222.143 471.96 222.143C424.938 222.143 396.03 248.408 386.959 292.568C368.523 283.435 353.199 268.971 343 251.19Z"/>
</mask>
<path fill-rule="evenodd" clip-rule="evenodd" d="M343 251.19V188.541H381.597V248.026H382.505C399.761 200.801 433.363 184 481.042 184C497.389 184 517.369 188.087 528.721 193.536V232.133C528.429 232.044 528.137 231.955 527.845 231.865C511.803 226.961 496.043 222.143 471.96 222.143C424.938 222.143 396.03 248.408 386.959 292.568C368.523 283.435 353.199 268.971 343 251.19Z" fill="#3D3D3D"/>
<path d="M343 251.19H342.066V251.439L342.19 251.655L343 251.19ZM343 188.541V187.607H342.066V188.541H343ZM381.597 188.541H382.531V187.607H381.597V188.541ZM381.597 248.026H380.663V248.96H381.597V248.026ZM382.505 248.026V248.96H383.158L383.382 248.346L382.505 248.026ZM528.721 193.536H529.654V192.948L529.125 192.694L528.721 193.536ZM528.721 232.133L528.448 233.026L529.654 233.395V232.133H528.721ZM527.845 231.865L527.572 232.758H527.572L527.845 231.865ZM386.959 292.568L386.544 293.404L387.63 293.942L387.873 292.756L386.959 292.568ZM343.934 251.19V188.541H342.066V251.19H343.934ZM343 189.475H381.597V187.607H343V189.475ZM380.663 188.541V248.026H382.531V188.541H380.663ZM381.597 248.96H382.505V247.092H381.597V248.96ZM383.382 248.346C391.952 224.893 404.547 209.074 420.852 199.1C437.172 189.117 457.304 184.934 481.042 184.934V183.066C457.101 183.066 436.592 187.283 419.877 197.507C403.148 207.74 390.314 223.934 381.628 247.705L383.382 248.346ZM481.042 184.934C497.283 184.934 517.118 189.002 528.317 194.378L529.125 192.694C517.619 187.171 497.495 183.066 481.042 183.066V184.934ZM527.787 193.536V232.133H529.654V193.536H527.787ZM528.994 231.24C528.702 231.151 528.41 231.062 528.118 230.972L527.572 232.758C527.864 232.847 528.156 232.937 528.448 233.026L528.994 231.24ZM528.118 230.972C512.061 226.064 496.189 221.209 471.96 221.209V223.077C495.896 223.077 511.545 227.859 527.572 232.758L528.118 230.972ZM471.96 221.209C448.27 221.209 429.061 227.829 414.624 240.084C400.191 252.334 390.612 270.145 386.044 292.38L387.873 292.756C392.377 270.831 401.787 253.429 415.832 241.507C429.873 229.589 448.629 223.077 471.96 223.077V221.209ZM387.373 291.731C369.104 282.681 353.917 268.346 343.81 250.726L342.19 251.655C352.48 269.595 367.943 284.189 386.544 293.404L387.373 291.731Z" fill="#3D3D3D" mask="url(#path-10-outside-2_336_7)"/>
<path d="M507.799 174.777C508.562 174.454 508.919 173.574 508.596 172.811L503.333 160.379C503.011 159.616 502.13 159.259 501.367 159.582C500.605 159.905 500.248 160.785 500.571 161.548L505.249 172.599L494.198 177.277C493.435 177.6 493.078 178.48 493.401 179.243C493.724 180.006 494.604 180.362 495.367 180.039L507.799 174.777ZM394.643 210.725C410.498 176.906 440.413 170.511 464.594 168.997L464.406 166.003C439.905 167.537 408.502 174.094 391.927 209.452L394.643 210.725ZM464.594 168.997C471.266 168.579 479.407 169.058 487.101 170.136C494.808 171.216 501.95 172.881 506.651 174.786L507.778 172.006C502.751 169.969 495.335 168.26 487.517 167.165C479.685 166.068 471.333 165.569 464.406 166.003L464.594 168.997Z" fill="#A28BF5"/>
<path fill-rule="evenodd" clip-rule="evenodd" d="M725.353 502.292V468.161H629.915V430.686H700.869C721.355 430.686 728.351 423.69 728.351 403.204V349.739H769.823V430.686H796.534C792.652 444.576 785.945 457.287 777.072 468.161H769.823V476.158C757.608 488.306 742.377 497.424 725.353 502.292Z" fill="#3D3D3D"/>
<circle cx="700.5" cy="403.5" r="101.671" fill="white" stroke="#3D3D3D" stroke-width="3.65724"/>
<path fill-rule="evenodd" clip-rule="evenodd" d="M611.676 454.077C634.707 445.386 655.572 423.071 655.572 379.861V374.468C633.627 375.432 615.15 376.726 600 378.778C602.876 367.137 607.819 356.311 614.418 346.711C627.042 345.609 640.763 344.86 655.572 344.357V332.223C655.572 325.147 655.01 318.817 653.899 313.19C665.354 307.816 678.013 304.581 691.359 304C693.206 312.177 694.165 321.27 694.165 331.324V436.487C694.165 450.868 698.204 454.464 712.564 454.464H720.642V487.271H708.076C672.625 487.271 660.508 474.238 658.713 444.577H656.021C649.819 457.8 641.209 468.522 630.39 476.346C623.112 469.902 616.793 462.398 611.676 454.077Z" fill="#3D3D3D"/>
<path d="M720.061 442.061C720.646 441.475 720.646 440.525 720.061 439.939L710.515 430.393C709.929 429.808 708.979 429.808 708.393 430.393C707.808 430.979 707.808 431.929 708.393 432.515L716.879 441L708.393 449.485C707.808 450.071 707.808 451.021 708.393 451.607C708.979 452.192 709.929 452.192 710.515 451.607L720.061 442.061ZM701.5 383V428.433H704.5V383H701.5ZM701.5 428.433C701.5 432.853 702.594 436.518 705.589 439.011C708.512 441.445 712.95 442.5 719 442.5V439.5C713.179 439.5 709.617 438.461 707.508 436.705C705.471 435.009 704.5 432.391 704.5 428.433H701.5Z" fill="#A28BF5"/>
<path fill-rule="evenodd" clip-rule="evenodd" d="M1218.35 202.292V168.161H1122.92V130.686H1193.87C1214.36 130.686 1221.35 123.69 1221.35 103.204V49.7386H1262.82V130.686H1289.53C1285.65 144.576 1278.95 157.287 1270.07 168.161H1262.82V176.158C1250.61 188.306 1235.38 197.424 1218.35 202.292Z" fill="#3D3D3D"/>
<circle cx="1193.5" cy="103.5" r="101.671" fill="white" stroke="#3D3D3D" stroke-width="3.65724"/>
<path fill-rule="evenodd" clip-rule="evenodd" d="M1216.48 201.875V109.467H1124V71H1264.06V176.421C1251.11 188.934 1234.74 197.931 1216.48 201.875Z" fill="#3D3D3D"/>
<path d="M1131.95 51.931C1131.36 52.5121 1131.35 53.4618 1131.93 54.0522L1141.4 63.6736C1141.98 64.264 1142.93 64.2716 1143.52 63.6904C1144.11 63.1093 1144.12 62.1596 1143.54 61.5692L1135.12 53.0168L1143.67 44.5992C1144.26 44.018 1144.27 43.0683 1143.69 42.4779C1143.11 41.8875 1142.16 41.88 1141.57 42.4611L1131.95 51.931ZM1259.01 52.5L1133.01 51.5L1132.99 54.5L1258.99 55.5L1259.01 52.5Z" fill="#A28BF5"/>
<path fill-rule="evenodd" clip-rule="evenodd" d="M169.353 306.292V272.161H73.9153V234.686H144.869C165.355 234.686 172.351 227.69 172.351 207.204V153.739H213.824V234.686H240.534C236.652 248.576 229.946 261.287 221.072 272.161H213.824V280.158C201.608 292.306 186.378 301.424 169.353 306.292Z" fill="#3D3D3D"/>
<circle cx="144.5" cy="207.5" r="101.671" fill="white" stroke="#3D3D3D" stroke-width="3.65724"/>
<path fill-rule="evenodd" clip-rule="evenodd" d="M169.353 306.292V272.161H73.9153V234.686H144.869C165.355 234.686 172.351 227.69 172.351 207.204V153.739H213.824V234.686H240.534C236.652 248.576 229.946 261.287 221.072 272.161H213.824V280.158C201.608 292.306 186.378 301.424 169.353 306.292Z" fill="#3D3D3D"/>
<path d="M126.939 214.254C126.354 214.84 126.354 215.79 126.939 216.376L136.485 225.922C137.071 226.507 138.021 226.507 138.607 225.922C139.192 225.336 139.192 224.386 138.607 223.8L130.121 215.315L138.607 206.83C139.192 206.244 139.192 205.294 138.607 204.709C138.021 204.123 137.071 204.123 136.485 204.709L126.939 214.254ZM128 216.815H142.009V213.815H128V216.815ZM142.009 216.815C149.859 216.815 155.591 215.493 159.297 211.787C163.003 208.08 164.326 202.349 164.326 194.498H161.326C161.326 202.166 159.998 206.842 157.176 209.665C154.353 212.488 149.676 213.815 142.009 213.815V216.815ZM164.326 194.498V154H161.326V194.498H164.326Z" fill="#A28BF5"/>
<path d="M1266.97 454.849C1272.92 450.532 1274.25 442.213 1269.93 436.268C1265.62 430.323 1257.3 429.003 1251.35 433.32C1245.4 437.637 1244.08 445.956 1248.39 451.901C1252.7 457.846 1261.02 459.166 1266.97 454.849Z" fill="#E57734"/>
<path d="M1302.25 435.709C1310.54 429.694 1312.39 418.103 1306.37 409.82C1300.36 401.537 1288.77 399.699 1280.48 405.713C1272.2 411.728 1270.35 423.319 1276.36 431.601C1282.37 439.884 1293.96 441.724 1302.25 435.709Z" fill="#E57734"/>
<path d="M1334.92 412.972C1343.56 406.702 1345.48 394.619 1339.22 385.984C1332.95 377.35 1320.87 375.433 1312.23 381.703C1303.59 387.973 1301.67 400.056 1307.93 408.69C1314.2 417.325 1326.28 419.242 1334.92 412.972Z" fill="#E57734"/>
<path d="M1366.5 388.736C1374.67 382.812 1376.48 371.396 1370.56 363.237C1364.64 355.079 1353.22 353.268 1345.06 359.192C1336.9 365.116 1335.08 376.533 1341 384.691C1346.92 392.849 1358.34 394.66 1366.5 388.736Z" fill="#E57734"/>
<path d="M1398.74 365.4C1406.92 359.46 1408.74 348.015 1402.81 339.836C1396.87 331.657 1385.43 329.842 1377.24 335.781C1369.06 341.721 1367.23 353.166 1373.17 361.345C1379.11 369.524 1390.55 371.339 1398.74 365.4Z" fill="#E57734"/>
<path d="M1431.05 342.177C1439.32 336.178 1441.16 324.616 1435.16 316.354C1429.17 308.092 1417.61 306.258 1409.34 312.257C1401.07 318.257 1399.23 329.818 1405.23 338.081C1411.22 346.343 1422.79 348.177 1431.05 342.177Z" fill="#E57734"/>
<path d="M1463.26 318.804C1471.53 312.804 1473.37 301.242 1467.37 292.98C1461.37 284.718 1449.81 282.884 1441.55 288.884C1433.28 294.883 1431.44 306.445 1437.43 314.707C1443.43 322.969 1454.99 324.803 1463.26 318.804Z" fill="#E57734"/>
<path d="M1495.47 295.43C1503.73 289.431 1505.57 277.869 1499.58 269.607C1493.58 261.345 1482.02 259.511 1473.75 265.51C1465.48 271.51 1463.64 283.071 1469.64 291.334C1475.64 299.596 1487.2 301.43 1495.47 295.43Z" fill="#E57734"/>
<path d="M1527.73 272.132C1536.04 266.102 1537.89 254.483 1531.86 246.179C1525.83 237.875 1514.21 236.032 1505.9 242.062C1497.6 248.092 1495.75 259.711 1501.77 268.015C1507.8 276.319 1519.42 278.162 1527.73 272.132Z" fill="#E57734"/>
<path d="M1559.85 248.645C1568.1 242.66 1569.94 231.128 1563.95 222.887C1557.97 214.645 1546.44 212.816 1538.19 218.801C1529.95 224.786 1528.11 236.318 1534.09 244.559C1540.07 252.8 1551.61 254.629 1559.85 248.645Z" fill="#E57734"/>
<path d="M1592 225.197C1600.21 219.242 1602.04 207.768 1596.09 199.569C1590.13 191.369 1578.66 189.548 1570.45 195.503C1562.25 201.457 1560.42 212.932 1566.37 221.132C1572.32 229.331 1583.8 231.151 1592 225.197Z" fill="#E57734"/>
<path d="M1293.95 492.017C1302.65 485.702 1304.59 473.534 1298.28 464.838C1291.96 456.142 1279.8 454.211 1271.09 460.526C1262.39 466.841 1260.45 479.01 1266.77 487.706C1273.08 496.402 1285.25 498.332 1293.95 492.017Z" fill="#E57734"/>
<path d="M1326.02 468.458C1334.62 462.218 1336.53 450.193 1330.3 441.6C1324.06 433.006 1312.03 431.099 1303.44 437.339C1294.84 443.579 1292.92 455.604 1299.16 464.197C1305.4 472.79 1317.42 474.698 1326.02 468.458Z" fill="#E57734"/>
<path d="M1358.5 445.457C1367.3 439.067 1369.26 426.754 1362.88 417.955C1356.49 409.156 1344.18 407.203 1335.37 413.592C1326.57 419.982 1324.61 432.295 1330.99 441.094C1337.38 449.893 1349.69 451.846 1358.5 445.457Z" fill="#E57734"/>
<path d="M1390.87 422.306C1399.79 415.827 1401.78 403.342 1395.31 394.42C1388.83 385.498 1376.34 383.517 1367.42 389.996C1358.49 396.476 1356.5 408.96 1362.98 417.883C1369.45 426.805 1381.94 428.785 1390.87 422.306Z" fill="#E57734"/>
<path d="M1422.99 398.822C1431.86 392.387 1433.83 379.988 1427.4 371.127C1420.97 362.267 1408.57 360.3 1399.7 366.734C1390.84 373.169 1388.86 385.568 1395.29 394.428C1401.73 403.289 1414.13 405.256 1422.99 398.822Z" fill="#E57734"/>
<path d="M1455.2 375.448C1464.06 369.014 1466.04 356.615 1459.61 347.754C1453.18 338.893 1440.78 336.927 1431.91 343.361C1423.05 349.796 1421.07 362.194 1427.5 371.055C1433.93 379.916 1446.33 381.883 1455.2 375.448Z" fill="#E57734"/>
<path d="M1487.41 352.075C1496.27 345.64 1498.25 333.241 1491.82 324.38C1485.38 315.52 1472.98 313.553 1464.12 319.987C1455.25 326.422 1453.28 338.821 1459.71 347.681C1466.14 356.542 1478.54 358.509 1487.41 352.075Z" fill="#E57734"/>
<path d="M1519.61 328.701C1528.48 322.267 1530.45 309.868 1524.02 301.007C1517.59 292.146 1505.19 290.18 1496.33 296.614C1487.46 303.049 1485.48 315.447 1491.91 324.308C1498.35 333.169 1510.75 335.136 1519.61 328.701Z" fill="#E57734"/>
<path d="M1551.82 305.328C1560.68 298.893 1562.66 286.494 1556.23 277.633C1549.8 268.773 1537.4 266.806 1528.53 273.24C1519.67 279.675 1517.69 292.074 1524.12 300.934C1530.55 309.795 1542.95 311.762 1551.82 305.328Z" fill="#E57734"/>
<path d="M1584.03 281.954C1592.89 275.52 1594.87 263.121 1588.44 254.26C1582 245.399 1569.6 243.433 1560.74 249.867C1551.87 256.302 1549.9 268.7 1556.33 277.561C1562.76 286.422 1575.16 288.389 1584.03 281.954Z" fill="#E57734"/>
<path d="M1616.34 258.729C1625.29 252.235 1627.28 239.722 1620.79 230.779C1614.3 221.836 1601.79 219.851 1592.84 226.345C1583.89 232.839 1581.9 245.353 1588.39 254.295C1594.88 263.238 1607.39 265.223 1616.34 258.729Z" fill="#E57734"/>
<path d="M1252.43 570.316C1260.78 564.256 1262.64 552.579 1256.59 544.234C1250.53 535.888 1238.85 534.036 1230.5 540.096C1222.15 546.156 1220.29 557.833 1226.35 566.178C1232.4 574.523 1244.08 576.376 1252.43 570.316Z" fill="#E57734"/>
<path d="M1284.67 546.98C1293.04 540.905 1294.9 529.199 1288.83 520.833C1282.76 512.467 1271.05 510.61 1262.68 516.685C1254.31 522.76 1252.44 534.466 1258.52 542.832C1264.59 551.198 1276.3 553.055 1284.67 546.98Z" fill="#E57734"/>
<path d="M1317.23 524.093C1325.87 517.823 1327.79 505.74 1321.52 497.106C1315.26 488.472 1303.17 486.555 1294.53 492.825C1285.89 499.095 1283.97 511.177 1290.24 519.812C1296.5 528.446 1308.59 530.363 1317.23 524.093Z" fill="#E57734"/>
<path d="M1349.51 500.831C1358.22 494.516 1360.15 482.348 1353.84 473.651C1347.53 464.955 1335.36 463.025 1326.66 469.34C1317.96 475.655 1316.02 487.823 1322.33 496.52C1328.64 505.216 1340.81 507.146 1349.51 500.831Z" fill="#E57734"/>
<path d="M1381.94 477.756C1390.8 471.321 1392.78 458.922 1386.35 450.061C1379.92 441.201 1367.52 439.234 1358.65 445.669C1349.78 452.103 1347.81 464.502 1354.24 473.362C1360.67 482.223 1373.07 484.19 1381.94 477.756Z" fill="#E57734"/>
<path d="M1414.17 454.419C1423.06 447.97 1425.04 435.542 1418.59 426.661C1412.15 417.78 1399.72 415.808 1390.83 422.258C1381.94 428.707 1379.96 441.135 1386.41 450.016C1392.86 458.897 1405.28 460.868 1414.17 454.419Z" fill="#E57734"/>
<path d="M1446.3 430.934C1455.12 424.53 1457.09 412.188 1450.69 403.369C1444.29 394.549 1431.94 392.591 1423.12 398.996C1414.29 405.4 1412.33 417.742 1418.73 426.561C1425.13 435.381 1437.47 437.339 1446.3 430.934Z" fill="#E57734"/>
<path d="M1478.42 407.449C1487.19 401.09 1489.14 388.834 1482.78 380.076C1476.43 371.318 1464.17 369.374 1455.41 375.734C1446.64 382.094 1444.69 394.349 1451.05 403.107C1457.4 411.865 1469.66 413.809 1478.42 407.449Z" fill="#E57734"/>
<path d="M1510.87 384.411C1519.82 377.917 1521.81 365.403 1515.32 356.46C1508.83 347.518 1496.32 345.532 1487.37 352.026C1478.42 358.52 1476.43 371.034 1482.92 379.977C1489.41 388.92 1501.92 390.905 1510.87 384.411Z" fill="#E57734"/>
<path d="M1542.92 360.814C1551.74 354.409 1553.71 342.068 1547.31 333.248C1540.91 324.429 1528.56 322.471 1519.74 328.875C1510.91 335.28 1508.95 347.621 1515.35 356.441C1521.75 365.261 1534.09 367.218 1542.92 360.814Z" fill="#E57734"/>
<path d="M1575.29 337.664C1584.23 331.17 1586.23 318.656 1579.74 309.713C1573.25 300.771 1560.73 298.785 1551.78 305.279C1542.84 311.773 1540.84 324.287 1547.33 333.23C1553.82 342.173 1566.34 344.158 1575.29 337.664Z" fill="#E57734"/>
<path d="M1607.33 314.067C1616.16 307.662 1618.12 295.321 1611.72 286.501C1605.32 277.682 1592.98 275.724 1584.15 282.128C1575.33 288.533 1573.36 300.875 1579.76 309.694C1586.16 318.514 1598.51 320.471 1607.33 314.067Z" fill="#E57734"/>
<path d="M1639.7 290.917C1648.65 284.423 1650.64 271.909 1644.15 262.966C1637.66 254.024 1625.15 252.038 1616.2 258.532C1607.25 265.026 1605.26 277.54 1611.75 286.483C1618.24 295.426 1630.75 297.411 1639.7 290.917Z" fill="#E57734"/>
<path d="M1172.42 663.326C1175.63 660.995 1176.35 656.503 1174.02 653.293C1171.69 650.083 1167.2 649.371 1163.99 651.702C1160.77 654.033 1160.06 658.525 1162.39 661.735C1164.72 664.945 1169.21 665.657 1172.42 663.326Z" fill="#E57734"/>
<path d="M1212.38 650.629C1221.49 644.016 1223.52 631.273 1216.91 622.167C1210.3 613.06 1197.56 611.039 1188.45 617.652C1179.33 624.265 1177.3 637.008 1183.91 646.114C1190.52 655.221 1203.27 657.242 1212.38 650.629Z" fill="#E57734"/>
<path d="M1244.93 627.736C1254.31 620.93 1256.4 607.816 1249.6 598.444C1242.8 589.073 1229.68 586.993 1220.3 593.798C1210.93 600.604 1208.84 613.718 1215.64 623.089C1222.44 632.461 1235.56 634.541 1244.93 627.736Z" fill="#E57734"/>
<path d="M1276.33 603.251C1285.1 596.891 1287.05 584.635 1280.69 575.878C1274.34 567.12 1262.08 565.175 1253.32 571.535C1244.55 577.895 1242.6 590.15 1248.96 598.908C1255.31 607.666 1267.57 609.611 1276.33 603.251Z" fill="#E57734"/>
<path d="M1307.15 577.959C1314.85 572.369 1316.57 561.595 1310.98 553.897C1305.39 546.198 1294.62 544.489 1286.92 550.08C1279.21 555.67 1277.5 566.443 1283.08 574.142C1288.67 581.841 1299.45 583.55 1307.15 577.959Z" fill="#E57734"/>
<path d="M1337.62 552.197C1344 547.565 1345.43 538.638 1340.8 532.259C1336.17 525.88 1327.24 524.463 1320.86 529.095C1314.47 533.728 1313.05 542.655 1317.68 549.034C1322.31 555.413 1331.24 556.829 1337.62 552.197Z" fill="#E57734"/>
<path d="M1368.91 527.56C1374.6 523.435 1375.86 515.484 1371.74 509.802C1367.62 504.12 1359.66 502.859 1353.98 506.985C1348.29 511.111 1347.03 519.062 1351.15 524.744C1355.28 530.425 1363.23 531.686 1368.91 527.56Z" fill="#E57734"/>
<path d="M1400.8 503.747C1406.24 499.798 1407.45 492.187 1403.51 486.748C1399.56 481.309 1391.95 480.101 1386.51 484.051C1381.06 488 1379.85 495.612 1383.8 501.051C1387.75 506.49 1395.36 507.697 1400.8 503.747Z" fill="#E57734"/>
<path d="M1432.77 480.052C1438.04 476.232 1439.21 468.869 1435.39 463.608C1431.57 458.347 1424.21 457.179 1418.95 461C1413.68 464.82 1412.51 472.183 1416.33 477.444C1420.15 482.705 1427.51 483.873 1432.77 480.052Z" fill="#E57734"/>
<path d="M1464.86 456.517C1470.04 452.761 1471.19 445.523 1467.44 440.351C1463.68 435.179 1456.45 434.031 1451.27 437.787C1446.09 441.543 1444.94 448.78 1448.7 453.953C1452.45 459.125 1459.69 460.273 1464.86 456.517Z" fill="#E57734"/>
<path d="M1497.01 433.063C1502.14 429.339 1503.28 422.164 1499.56 417.037C1495.84 411.909 1488.67 410.771 1483.54 414.495C1478.41 418.218 1477.26 425.393 1480.98 430.521C1484.7 435.649 1491.88 436.786 1497.01 433.063Z" fill="#E57734"/>
<path d="M1529.13 409.568C1534.19 405.893 1535.32 398.812 1531.65 393.752C1527.98 388.691 1520.89 387.568 1515.83 391.243C1510.77 394.918 1509.64 401.999 1513.31 407.059C1516.98 412.12 1524.07 413.243 1529.13 409.568Z" fill="#E57734"/>
<path d="M1561.37 386.235C1566.45 382.544 1567.58 375.432 1563.9 370.349C1560.21 365.266 1553.09 364.137 1548.01 367.828C1542.92 371.52 1541.79 378.632 1545.48 383.715C1549.17 388.798 1556.28 389.926 1561.37 386.235Z" fill="#E57734"/>
<path d="M1594.39 363.986C1600.1 359.844 1601.37 351.863 1597.23 346.159C1593.09 340.455 1585.11 339.189 1579.4 343.331C1573.69 347.473 1572.42 355.454 1576.56 361.158C1580.7 366.862 1588.68 368.128 1594.39 363.986Z" fill="#E57734"/>
<path d="M1626.45 340.413C1632.05 336.351 1633.29 328.523 1629.23 322.93C1625.18 317.336 1617.35 316.094 1611.75 320.156C1606.15 324.218 1604.91 332.046 1608.97 337.639C1613.03 343.233 1620.85 344.475 1626.45 340.413Z" fill="#E57734"/>
<path d="M1658.83 317.279C1664.56 313.121 1665.84 305.109 1661.68 299.383C1657.53 293.657 1649.51 292.387 1643.78 296.545C1638.05 300.703 1636.78 308.715 1640.93 314.44C1645.09 320.166 1653.1 321.437 1658.83 317.279Z" fill="#E57734"/>
<path d="M1130.76 741.424C1133.51 739.428 1134.12 735.583 1132.13 732.835C1130.14 730.087 1126.29 729.477 1123.54 731.472C1120.79 733.468 1120.18 737.313 1122.17 740.061C1124.17 742.809 1128.01 743.419 1130.76 741.424Z" fill="#E57734"/>
<path d="M1166.97 723.561C1172.76 719.355 1174.05 711.251 1169.85 705.46C1165.65 699.668 1157.54 698.383 1151.75 702.588C1145.95 706.794 1144.66 714.898 1148.86 720.69C1153.07 726.482 1161.17 727.767 1166.97 723.561Z" fill="#E57734"/>
<path d="M1198.74 699.589C1204.21 695.624 1205.42 687.982 1201.46 682.52C1197.5 677.059 1189.85 675.847 1184.39 679.812C1178.92 683.778 1177.71 691.42 1181.67 696.881C1185.63 702.342 1193.28 703.555 1198.74 699.589Z" fill="#E57734"/>
<path d="M1231.12 676.456C1236.72 672.394 1237.96 664.566 1233.91 658.973C1229.85 653.379 1222.02 652.137 1216.42 656.199C1210.82 660.261 1209.58 668.089 1213.64 673.682C1217.7 679.276 1225.52 680.518 1231.12 676.456Z" fill="#E57734"/>
<path d="M1263.33 653.083C1268.93 649.021 1270.17 641.193 1266.11 635.599C1262.05 630.005 1254.22 628.764 1248.63 632.826C1243.03 636.888 1241.78 644.715 1245.84 650.309C1249.9 655.902 1257.73 657.145 1263.33 653.083Z" fill="#E57734"/>
<path d="M1295.62 629.828C1301.29 625.718 1302.55 617.798 1298.44 612.139C1294.33 606.479 1286.41 605.223 1280.75 609.333C1275.08 613.443 1273.82 621.362 1277.93 627.022C1282.04 632.682 1289.96 633.938 1295.62 629.828Z" fill="#E57734"/>
<path d="M1327.57 606.095C1333.03 602.13 1334.25 594.488 1330.29 589.026C1326.32 583.565 1318.68 582.353 1313.22 586.318C1307.75 590.284 1306.53 597.926 1310.5 603.387C1314.46 608.849 1322.1 610.061 1327.57 606.095Z" fill="#E57734"/>
<path d="M1359.6 582.481C1364.93 578.612 1366.12 571.156 1362.25 565.828C1358.38 560.5 1350.93 559.317 1345.6 563.186C1340.27 567.055 1339.08 574.511 1342.95 579.839C1346.81 585.167 1354.27 586.35 1359.6 582.481Z" fill="#E57734"/>
<path d="M1392.47 560.026C1398.31 555.788 1399.61 547.623 1395.38 541.787C1391.14 535.952 1382.98 534.657 1377.14 538.894C1371.3 543.132 1370 551.297 1374.23 557.133C1378.47 562.968 1386.63 564.263 1392.47 560.026Z" fill="#E57734"/>
<path d="M1425.79 538.183C1432.48 533.331 1433.96 523.984 1429.12 517.303C1424.27 510.622 1414.92 509.14 1408.23 513.991C1401.55 518.842 1400.06 528.19 1404.91 534.871C1409.76 541.552 1419.11 543.034 1425.79 538.183Z" fill="#E57734"/>
<path d="M1459.39 516.729C1467.14 511.108 1468.86 500.276 1463.24 492.536C1457.63 484.795 1446.79 483.077 1439.05 488.698C1431.3 494.319 1429.58 505.151 1435.2 512.891C1440.81 520.632 1451.64 522.35 1459.39 516.729Z" fill="#E57734"/>
<path d="M1492.01 493.923C1500.07 488.074 1501.86 476.804 1496.02 468.75C1490.17 460.695 1478.9 458.907 1470.84 464.756C1462.78 470.605 1460.99 481.875 1466.83 489.93C1472.68 497.984 1483.95 499.771 1492.01 493.923Z" fill="#E57734"/>
<path d="M1525.57 472.418C1534.66 465.82 1536.69 453.105 1530.09 444.019C1523.5 434.933 1510.78 432.917 1501.69 439.515C1492.6 446.113 1490.58 458.827 1497.17 467.913C1503.76 476.999 1516.48 479.016 1525.57 472.418Z" fill="#E57734"/>
<path d="M1558.55 450.113C1568.24 443.086 1570.39 429.546 1563.37 419.87C1556.35 410.194 1542.81 408.046 1533.12 415.072C1523.44 422.099 1521.29 435.639 1528.31 445.316C1535.33 454.992 1548.87 457.14 1558.55 450.113Z" fill="#E57734"/>
<path d="M1591.92 428.342C1602.49 420.673 1604.85 405.894 1597.18 395.333C1589.52 384.771 1574.74 382.428 1564.17 390.097C1553.6 397.766 1551.25 412.544 1558.91 423.106C1566.58 433.667 1581.36 436.011 1591.92 428.342Z" fill="#E57734"/>
<path d="M1624.08 404.896C1634.61 397.256 1636.95 382.534 1629.32 372.012C1621.68 361.491 1606.96 359.155 1596.43 366.796C1585.9 374.436 1583.56 389.159 1591.19 399.68C1598.83 410.201 1613.55 412.536 1624.08 404.896Z" fill="#E57734"/>
<path d="M1656.52 381.848C1667.23 374.078 1669.61 359.103 1661.85 348.402C1654.08 337.701 1639.11 335.325 1628.4 343.096C1617.69 350.867 1615.31 365.841 1623.07 376.542C1630.84 387.243 1645.81 389.619 1656.52 381.848Z" fill="#E57734"/>
<path d="M1688.81 358.583C1699.57 350.768 1701.97 335.711 1694.16 324.95C1686.35 314.189 1671.29 311.8 1660.53 319.615C1649.76 327.429 1647.36 342.487 1655.17 353.247C1662.98 364.008 1678.04 366.397 1688.81 358.583Z" fill="#E57734"/>
<path d="M1154.19 773.7C1156.98 771.669 1157.61 767.755 1155.58 764.958C1153.55 762.16 1149.63 761.539 1146.83 763.57C1144.04 765.602 1143.41 769.516 1145.44 772.313C1147.47 775.11 1151.39 775.731 1154.19 773.7Z" fill="#E57734"/>
<path d="M1196.73 764.565C1207.39 756.824 1209.77 741.905 1202.03 731.244C1194.3 720.583 1179.38 718.216 1168.71 725.958C1158.04 733.699 1155.66 748.619 1163.4 759.28C1171.14 769.941 1186.06 772.307 1196.73 764.565Z" fill="#E57734"/>
<path d="M1228.88 741.119C1239.51 733.406 1241.87 718.544 1234.17 707.922C1226.46 697.301 1211.59 694.944 1200.97 702.657C1190.34 710.37 1187.97 725.232 1195.68 735.853C1203.39 746.474 1218.25 748.832 1228.88 741.119Z" fill="#E57734"/>
<path d="M1261.03 717.674C1271.62 709.99 1273.98 695.183 1266.3 684.602C1258.62 674.021 1243.81 671.672 1233.23 679.356C1222.64 687.04 1220.28 701.846 1227.96 712.428C1235.64 723.009 1250.45 725.358 1261.03 717.674Z" fill="#E57734"/>
<path d="M1286.98 685.668C1292.79 681.446 1294.09 673.311 1289.87 667.497C1285.65 661.684 1277.52 660.393 1271.7 664.615C1265.88 668.837 1264.59 676.972 1268.8 682.785C1273.02 688.599 1281.16 689.889 1286.98 685.668Z" fill="#E57734"/>
<path d="M1318.78 661.736C1324.29 657.739 1325.51 650.035 1321.52 644.529C1317.52 639.024 1309.82 637.801 1304.31 641.799C1298.8 645.797 1297.57 653.501 1301.57 659.007C1305.57 664.512 1313.27 665.734 1318.78 661.736Z" fill="#E57734"/>
<path d="M1351.56 639.159C1357.51 634.842 1358.84 626.523 1354.52 620.578C1350.21 614.633 1341.89 613.313 1335.94 617.63C1329.99 621.947 1328.67 630.266 1332.98 636.211C1337.29 642.156 1345.61 643.476 1351.56 639.159Z" fill="#E57734"/>
<path d="M1384.26 616.453C1390.57 611.868 1391.98 603.033 1387.4 596.719C1382.82 590.404 1373.98 589.002 1367.66 593.588C1361.34 598.173 1359.94 607.009 1364.52 613.323C1369.1 619.638 1377.94 621.039 1384.26 616.453Z" fill="#E57734"/>
<path d="M1416.01 592.451C1421.98 588.118 1423.31 579.769 1418.98 573.802C1414.64 567.835 1406.29 566.511 1400.32 570.844C1394.35 575.177 1393.02 583.526 1397.35 589.493C1401.68 595.459 1410.03 596.784 1416.01 592.451Z" fill="#E57734"/>
<path d="M1447.69 568.363C1453.27 564.317 1454.51 556.52 1450.47 550.948C1446.42 545.377 1438.62 544.14 1433.05 548.186C1427.47 552.232 1426.23 560.029 1430.28 565.6C1434.32 571.172 1442.12 572.409 1447.69 568.363Z" fill="#E57734"/>
<path d="M1480.65 546.02C1486.79 541.56 1488.16 532.967 1483.7 526.826C1479.25 520.685 1470.65 519.322 1464.51 523.781C1458.36 528.24 1457 536.834 1461.45 542.975C1465.91 549.116 1474.5 550.479 1480.65 546.02Z" fill="#E57734"/>
<path d="M1512.68 522.409C1518.7 518.045 1520.04 509.635 1515.67 503.624C1511.31 497.614 1502.9 496.28 1496.89 500.645C1490.87 505.009 1489.53 513.419 1493.9 519.43C1498.26 525.44 1506.67 526.773 1512.68 522.409Z" fill="#E57734"/>
<path d="M1544.17 498.042C1549.63 494.076 1550.85 486.435 1546.89 480.973C1542.92 475.512 1535.28 474.299 1529.82 478.265C1524.35 482.231 1523.13 489.873 1527.1 495.334C1531.06 500.795 1538.7 502.008 1544.17 498.042Z" fill="#E57734"/>
<path d="M1577.33 475.978C1583.51 471.487 1584.89 462.833 1580.4 456.648C1575.91 450.464 1567.26 449.091 1561.07 453.582C1554.88 458.073 1553.51 466.727 1557.99 472.911C1562.48 479.095 1571.14 480.469 1577.33 475.978Z" fill="#E57734"/>
<path d="M1609.79 452.957C1616.17 448.325 1617.59 439.398 1612.96 433.019C1608.33 426.64 1599.41 425.223 1593.02 429.855C1586.64 434.488 1585.22 443.415 1589.85 449.794C1594.48 456.173 1603.41 457.589 1609.79 452.957Z" fill="#E57734"/>
<path d="M1641.94 429.505C1648.28 424.904 1649.69 416.038 1645.09 409.702C1640.49 403.366 1631.63 401.96 1625.29 406.561C1618.95 411.162 1617.53 420.028 1622.13 426.364C1626.73 432.7 1635.6 434.106 1641.94 429.505Z" fill="#E57734"/>
<path d="M1672.76 404.227C1678.05 400.39 1679.23 392.996 1675.39 387.712C1671.56 382.429 1664.16 381.256 1658.88 385.092C1653.59 388.929 1652.41 396.323 1656.25 401.607C1660.08 406.891 1667.48 408.063 1672.76 404.227Z" fill="#E57734"/>
<path d="M1706.49 382.954C1712.94 378.275 1714.38 369.257 1709.7 362.813C1705.02 356.369 1696.01 354.939 1689.56 359.618C1683.11 364.298 1681.67 373.315 1686.35 379.759C1691.03 386.203 1700.05 387.634 1706.49 382.954Z" fill="#E57734"/>
<path d="M1311.05 718.84C1317.41 714.224 1318.83 705.327 1314.22 698.97C1309.6 692.612 1300.7 691.201 1294.34 695.817C1287.98 700.434 1286.56 709.331 1291.18 715.688C1295.79 722.046 1304.69 723.457 1311.05 718.84Z" fill="#E57734"/>
<path d="M1343.31 695.544C1349.72 690.896 1351.15 681.94 1346.5 675.539C1341.85 669.138 1332.9 667.717 1326.49 672.365C1320.09 677.014 1318.66 685.97 1323.31 692.371C1327.95 698.772 1336.91 700.192 1343.31 695.544Z" fill="#E57734"/>
<path d="M1375.44 672.054C1381.78 667.453 1383.19 658.587 1378.59 652.251C1373.99 645.915 1365.12 644.509 1358.78 649.11C1352.44 653.711 1351.03 662.577 1355.63 668.913C1360.23 675.249 1369.1 676.655 1375.44 672.054Z" fill="#E57734"/>
<path d="M1407.78 648.876C1414.23 644.197 1415.67 635.179 1410.99 628.735C1406.32 622.291 1397.3 620.861 1390.85 625.54C1384.4 630.219 1382.97 639.237 1387.64 645.681C1392.32 652.125 1401.34 653.555 1407.78 648.876Z" fill="#E57734"/>
<path d="M1438.82 623.883C1444.37 619.853 1445.61 612.087 1441.58 606.538C1437.55 600.988 1429.78 599.756 1424.23 603.786C1418.68 607.816 1417.44 615.582 1421.47 621.132C1425.5 626.681 1433.26 627.913 1438.82 623.883Z" fill="#E57734"/>
<path d="M1471.69 601.423C1477.74 597.027 1479.09 588.555 1474.7 582.501C1470.31 576.447 1461.83 575.104 1455.78 579.5C1449.72 583.896 1448.37 592.367 1452.76 598.421C1457.16 604.475 1465.63 605.819 1471.69 601.423Z" fill="#E57734"/>
<path d="M1503.46 577.455C1509.19 573.297 1510.47 565.285 1506.31 559.559C1502.16 553.833 1494.14 552.563 1488.41 556.721C1482.68 560.878 1481.41 568.89 1485.56 574.616C1489.72 580.342 1497.73 581.613 1503.46 577.455Z" fill="#E57734"/>
<path d="M1536.27 554.912C1542.46 550.421 1543.84 541.767 1539.35 535.583C1534.86 529.398 1526.21 528.025 1520.02 532.516C1513.83 537.007 1512.45 545.661 1516.94 551.845C1521.43 558.03 1530.08 559.403 1536.27 554.912Z" fill="#E57734"/>
<path d="M1568.76 531.93C1575.17 527.282 1576.59 518.325 1571.95 511.924C1567.3 505.524 1558.35 504.103 1551.94 508.751C1545.54 513.399 1544.11 522.356 1548.75 528.757C1553.4 535.158 1562.36 536.578 1568.76 531.93Z" fill="#E57734"/>
<path d="M1600.97 508.557C1607.37 503.908 1608.8 494.952 1604.15 488.551C1599.51 482.15 1590.55 480.73 1584.15 485.378C1577.74 490.026 1576.32 498.983 1580.96 505.383C1585.61 511.784 1594.56 513.205 1600.97 508.557Z" fill="#E57734"/>
<path d="M1633.18 485.183C1639.58 480.535 1641.01 471.578 1636.36 465.177C1631.72 458.777 1622.76 457.356 1616.35 462.004C1609.95 466.652 1608.52 475.609 1613.17 482.01C1617.81 488.411 1626.77 489.831 1633.18 485.183Z" fill="#E57734"/>
<path d="M1665.35 461.771C1671.74 457.139 1673.16 448.212 1668.53 441.833C1663.9 435.454 1654.97 434.037 1648.59 438.67C1642.21 443.302 1640.78 452.229 1645.41 458.608C1650.04 464.988 1658.97 466.404 1665.35 461.771Z" fill="#E57734"/>
<path d="M1696.35 436.735C1701.82 432.769 1703.04 425.128 1699.07 419.666C1695.11 414.205 1687.47 412.992 1682 416.958C1676.54 420.924 1675.32 428.566 1679.28 434.027C1683.25 439.488 1690.89 440.701 1696.35 436.735Z" fill="#E57734"/>
<path d="M1729.91 415.219C1736.4 410.508 1737.85 401.431 1733.14 394.944C1728.43 388.456 1719.35 387.017 1712.86 391.727C1706.37 396.438 1704.92 405.515 1709.63 412.003C1714.34 418.49 1723.42 419.93 1729.91 415.219Z" fill="#E57734"/>
<path d="M1334.41 751.027C1340.77 746.411 1342.19 737.514 1337.57 731.157C1332.96 724.799 1324.06 723.388 1317.7 728.004C1311.34 732.621 1309.92 741.518 1314.54 747.875C1319.15 754.233 1328.05 755.644 1334.41 751.027Z" fill="#E57734"/>
<path d="M1366.67 727.732C1373.08 723.084 1374.5 714.127 1369.86 707.726C1365.21 701.325 1356.26 699.905 1349.85 704.553C1343.45 709.201 1342.02 718.158 1346.67 724.559C1351.31 730.959 1360.27 732.38 1366.67 727.732Z" fill="#E57734"/>
<path d="M1398.62 704.006C1404.83 699.499 1406.22 690.815 1401.71 684.609C1397.21 678.402 1388.52 677.025 1382.31 681.531C1376.1 686.038 1374.72 694.722 1379.23 700.928C1383.73 707.134 1392.42 708.513 1398.62 704.006Z" fill="#E57734"/>
<path d="M1430.32 679.922C1436.13 675.7 1437.43 667.565 1433.21 661.751C1428.99 655.938 1420.85 654.648 1415.04 658.869C1409.22 663.091 1407.92 671.226 1412.14 677.039C1416.36 682.853 1424.5 684.144 1430.32 679.922Z" fill="#E57734"/>
<path d="M1462.64 656.707C1468.54 652.422 1469.86 644.164 1465.57 638.263C1461.29 632.362 1453.03 631.052 1447.13 635.337C1441.22 639.622 1439.91 647.88 1444.19 653.781C1448.47 659.682 1456.73 660.992 1462.64 656.707Z" fill="#E57734"/>
<path d="M1494.15 632.376C1499.53 628.475 1500.72 620.957 1496.82 615.585C1492.92 610.212 1485.41 609.02 1480.03 612.921C1474.65 616.822 1473.46 624.34 1477.36 629.713C1481.26 635.085 1488.77 636.278 1494.15 632.376Z" fill="#E57734"/>
<path d="M1527.19 610.157C1533.21 605.793 1534.55 597.383 1530.19 591.373C1525.82 585.362 1517.41 584.028 1511.4 588.393C1505.39 592.757 1504.05 601.167 1508.41 607.178C1512.77 613.188 1521.18 614.522 1527.19 610.157Z" fill="#E57734"/>
<path d="M1559.94 587.53C1566.37 582.867 1567.8 573.88 1563.14 567.457C1558.48 561.035 1549.49 559.609 1543.06 564.273C1536.64 568.937 1535.21 577.924 1539.87 584.346C1544.53 590.769 1553.52 592.194 1559.94 587.53Z" fill="#E57734"/>
<path d="M1592.01 563.961C1598.33 559.375 1599.73 550.54 1595.15 544.226C1590.57 537.911 1581.73 536.51 1575.41 541.095C1569.1 545.68 1567.69 554.516 1572.27 560.83C1576.85 567.145 1585.69 568.546 1592.01 563.961Z" fill="#E57734"/>
<path d="M1624.33 540.744C1630.73 536.096 1632.16 527.139 1627.51 520.739C1622.87 514.338 1613.91 512.917 1607.51 517.565C1601.1 522.213 1599.68 531.17 1604.32 537.571C1608.97 543.972 1617.92 545.392 1624.33 540.744Z" fill="#E57734"/>
<path d="M1656.39 517.175C1662.69 512.605 1664.09 503.8 1659.53 497.507C1654.96 491.214 1646.15 489.818 1639.86 494.387C1633.56 498.957 1632.16 507.762 1636.72 514.055C1641.29 520.348 1650.1 521.745 1656.39 517.175Z" fill="#E57734"/>
<path d="M1688.66 493.88C1695 489.279 1696.41 480.413 1691.81 474.077C1687.21 467.741 1678.34 466.334 1672 470.935C1665.66 475.536 1664.25 484.403 1668.85 490.739C1673.45 497.075 1682.32 498.481 1688.66 493.88Z" fill="#E57734"/>
<path d="M1719.77 469.003C1725.28 465.005 1726.51 457.301 1722.51 451.795C1718.52 446.29 1710.81 445.068 1705.3 449.065C1699.79 453.063 1698.57 460.768 1702.56 466.273C1706.56 471.778 1714.26 473 1719.77 469.003Z" fill="#E57734"/>
<path d="M1752.96 446.977C1759.21 442.438 1760.6 433.693 1756.07 427.443C1751.53 421.194 1742.79 419.807 1736.53 424.345C1730.28 428.883 1728.89 437.628 1733.42 443.877C1737.96 450.127 1746.7 451.515 1752.96 446.977Z" fill="#E57734"/>
<path d="M1357.85 783.332C1364.28 778.668 1365.71 769.681 1361.05 763.259C1356.39 756.836 1347.4 755.411 1340.98 760.074C1334.55 764.738 1333.12 773.725 1337.78 780.148C1342.44 786.57 1351.43 787.996 1357.85 783.332Z" fill="#E57734"/>
<path d="M1389.95 759.802C1396.29 755.201 1397.7 746.335 1393.1 739.999C1388.5 733.663 1379.64 732.256 1373.3 736.857C1366.96 741.458 1365.54 750.324 1370.14 756.66C1374.74 762.996 1383.61 764.403 1389.95 759.802Z" fill="#E57734"/>
<path d="M1421.41 735.403C1427.18 731.213 1428.47 723.14 1424.28 717.37C1420.09 711.6 1412.02 710.319 1406.25 714.509C1400.47 718.699 1399.19 726.773 1403.38 732.542C1407.56 738.312 1415.64 739.593 1421.41 735.403Z" fill="#E57734"/>
<path d="M1453.67 712.109C1459.49 707.887 1460.79 699.752 1456.57 693.938C1452.35 688.125 1444.21 686.835 1438.4 691.056C1432.58 695.278 1431.28 703.413 1435.5 709.227C1439.72 715.04 1447.86 716.331 1453.67 712.109Z" fill="#E57734"/>
<path d="M1485.01 687.534C1490.16 683.794 1491.31 676.587 1487.57 671.438C1483.84 666.288 1476.63 665.145 1471.48 668.884C1466.32 672.624 1465.17 679.831 1468.91 684.98C1472.65 690.13 1479.86 691.274 1485.01 687.534Z" fill="#E57734"/>
<path d="M1518.06 665.322C1523.85 661.116 1525.15 653.012 1520.94 647.22C1516.74 641.429 1508.63 640.143 1502.84 644.349C1497.04 648.555 1495.75 656.659 1499.96 662.451C1504.16 668.242 1512.26 669.527 1518.06 665.322Z" fill="#E57734"/>
<path d="M1550.61 642.424C1556.67 638.028 1558.02 629.556 1553.62 623.502C1549.23 617.448 1540.76 616.104 1534.7 620.501C1528.64 624.897 1527.29 633.368 1531.69 639.422C1536.08 645.476 1544.55 646.82 1550.61 642.424Z" fill="#E57734"/>
<path d="M1582.82 619.05C1588.88 614.654 1590.22 606.182 1585.83 600.129C1581.44 594.075 1572.97 592.731 1566.91 597.127C1560.85 601.523 1559.5 609.995 1563.89 616.049C1568.29 622.102 1576.76 623.447 1582.82 619.05Z" fill="#E57734"/>
<path d="M1615.31 596.07C1621.58 591.516 1622.98 582.741 1618.43 576.47C1613.88 570.199 1605.1 568.807 1598.83 573.361C1592.55 577.915 1591.16 586.69 1595.71 592.961C1600.26 599.232 1609.03 600.624 1615.31 596.07Z" fill="#E57734"/>
<path d="M1647.46 572.618C1653.69 568.096 1655.08 559.381 1650.56 553.153C1646.04 546.925 1637.32 545.543 1631.09 550.065C1624.86 554.588 1623.47 563.302 1627.99 569.53C1632.51 575.758 1641.23 577.141 1647.46 572.618Z" fill="#E57734"/>
<path d="M1679.95 549.636C1686.4 544.957 1687.84 535.939 1683.16 529.495C1678.48 523.051 1669.46 521.621 1663.02 526.3C1656.57 530.979 1655.13 539.997 1659.81 546.441C1664.48 552.885 1673.5 554.315 1679.95 549.636Z" fill="#E57734"/>
<path d="M1712.16 526.263C1718.61 521.583 1720.04 512.566 1715.37 506.122C1710.69 499.678 1701.67 498.247 1695.22 502.927C1688.77 507.606 1687.34 516.624 1692.02 523.068C1696.69 529.512 1705.71 530.942 1712.16 526.263Z" fill="#E57734"/>
<path d="M1743.82 502.144C1749.86 497.763 1751.2 489.322 1746.83 483.29C1742.45 477.258 1734.01 475.919 1727.97 480.299C1721.93 484.68 1720.59 493.12 1724.97 499.152C1729.35 505.184 1737.79 506.524 1743.82 502.144Z" fill="#E57734"/>
<path d="M1777.3 480.525C1784.31 475.441 1785.87 465.644 1780.79 458.642C1775.71 451.641 1765.91 450.087 1758.9 455.172C1751.9 460.256 1750.34 470.052 1755.42 477.053C1760.5 484.055 1770.3 485.609 1777.3 480.525Z" fill="#E57734"/>
<path d="M1383.08 818.095C1390.93 812.398 1392.68 801.42 1386.99 793.575C1381.29 785.729 1370.32 783.988 1362.46 789.685C1354.61 795.382 1352.87 806.36 1358.56 814.206C1364.25 822.051 1375.23 823.793 1383.08 818.095Z" fill="#E57734"/>
<path d="M1415.45 794.948C1423.43 789.16 1425.21 778.007 1419.42 770.036C1413.64 762.065 1402.48 760.296 1394.51 766.084C1386.53 771.873 1384.76 783.026 1390.54 790.997C1396.32 798.968 1407.48 800.736 1415.45 794.948Z" fill="#E57734"/>
<path d="M1446.42 769.859C1453.44 764.759 1455.01 754.933 1449.91 747.91C1444.81 740.888 1434.99 739.329 1427.96 744.428C1420.93 749.528 1419.37 759.355 1424.47 766.377C1429.56 773.4 1439.39 774.958 1446.42 769.859Z" fill="#E57734"/>
<path d="M1480.01 748.391C1488.09 742.527 1489.88 731.227 1484.02 723.152C1478.16 715.077 1466.86 713.285 1458.78 719.148C1450.7 725.012 1448.9 736.312 1454.76 744.387C1460.63 752.462 1471.93 754.255 1480.01 748.391Z" fill="#E57734"/>
<path d="M1511.41 723.916C1518.89 718.494 1520.55 708.045 1515.13 700.578C1509.71 693.11 1499.26 691.453 1491.79 696.876C1484.32 702.298 1482.65 712.747 1488.07 720.215C1493.49 727.682 1503.94 729.339 1511.41 723.916Z" fill="#E57734"/>
<path d="M1544.2 701.342C1552.11 695.599 1553.88 684.533 1548.14 676.625C1542.4 668.717 1531.33 666.961 1523.42 672.704C1515.5 678.446 1513.74 689.512 1519.48 697.42C1525.22 705.328 1536.29 707.085 1544.2 701.342Z" fill="#E57734"/>
<path d="M1576.41 677.969C1584.32 672.226 1586.08 661.159 1580.34 653.251C1574.6 645.343 1563.54 643.588 1555.62 649.33C1547.71 655.073 1545.95 666.139 1551.69 674.047C1557.43 681.955 1568.49 683.711 1576.41 677.969Z" fill="#E57734"/>
<path d="M1608.59 654.557C1616.48 648.83 1618.24 637.792 1612.51 629.905C1606.79 622.018 1595.75 620.267 1587.86 625.995C1579.97 631.722 1578.21 642.759 1583.93 650.646C1589.66 658.533 1600.69 660.285 1608.59 654.557Z" fill="#E57734"/>
<path d="M1640.82 631.222C1648.73 625.479 1650.5 614.412 1644.76 606.504C1639.02 598.596 1627.95 596.841 1620.04 602.583C1612.12 608.326 1610.36 619.392 1616.1 627.3C1621.84 635.208 1632.91 636.964 1640.82 631.222Z" fill="#E57734"/>
<path d="M1673.03 607.848C1680.94 602.105 1682.7 591.039 1676.96 583.131C1671.22 575.223 1660.16 573.467 1652.24 579.21C1644.33 584.952 1642.57 596.018 1648.31 603.926C1654.05 611.834 1665.11 613.591 1673.03 607.848Z" fill="#E57734"/>
<path d="M1705.21 584.437C1713.1 578.709 1714.86 567.672 1709.13 559.785C1703.41 551.898 1692.37 550.147 1684.48 555.874C1676.59 561.602 1674.83 572.638 1680.55 580.526C1686.28 588.413 1697.32 590.164 1705.21 584.437Z" fill="#E57734"/>
<path d="M1737.44 561.101C1745.35 555.359 1747.12 544.292 1741.38 536.384C1735.64 528.476 1724.57 526.72 1716.66 532.463C1708.74 538.206 1706.98 549.272 1712.72 557.18C1718.46 565.088 1729.53 566.844 1737.44 561.101Z" fill="#E57734"/>
<path d="M1768.6 536.278C1775.71 531.117 1777.29 521.171 1772.13 514.064C1766.98 506.956 1757.03 505.378 1749.92 510.539C1742.8 515.701 1741.22 525.647 1746.38 532.754C1751.54 539.862 1761.48 541.44 1768.6 536.278Z" fill="#E57734"/>
<path d="M1801.94 514.467C1809.91 508.679 1811.69 497.525 1805.9 489.555C1800.12 481.584 1788.96 479.815 1780.99 485.603C1773.01 491.391 1771.24 502.544 1777.02 510.515C1782.81 518.486 1793.96 520.255 1801.94 514.467Z" fill="#E57734"/>
</svg>
