<svg width="152" height="1071" viewBox="0 0 152 1071" fill="none" xmlns="http://www.w3.org/2000/svg">
<path d="M22.3206 95.2087C39.7616 103.33 48.4198 88.9352 65.068 91.2569C76.3533 92.8308 85.9287 109.436 70.8816 111.829C56.4957 114.116 29.1739 133.762 52.7567 182.968C82.2353 244.474 105.627 257.065 98.6502 285.206C96.1581 295.259 73.891 316.558 43.1813 302.078C17.7837 286.549 -8.84462 277.635 32.4432 366.481C57.7496 420.937 122.442 421.111 143.107 447.629C171.218 483.702 105.627 489.384 84.6291 495.664C66.5271 501.078 25.9548 527.38 43.5917 560.633C52.0727 576.624 101.982 587.18 103.028 601.365C104.327 618.992 5.91932 652.975 54.9454 666.019C103.971 679.064 85.3172 714.393 135.926 763.473C169.098 795.643 64.384 826.491 81.6197 859.227C103.164 900.148 128.744 876.099 139.072 899.141C160.659 947.301 126.285 1022.06 117.459 1035.19C102.686 1057.16 121.996 1062.45 115.818 1070" stroke="url(#paint0_linear_491_29)" stroke-width="3"/>
<defs>
<linearGradient id="paint0_linear_491_29" x1="124.435" y1="546.028" x2="-7.78078" y2="556.643" gradientUnits="userSpaceOnUse">
<stop stop-color="#E57734"/>
<stop offset="1" stop-color="white" stop-opacity="0"/>
</linearGradient>
</defs>
</svg>
